<mxfile host="Electron" modified="2023-05-02T05:44:20.766Z" agent="Mozilla/5.0 (Windows NT 10.0; Win64; x64) AppleWebKit/537.36 (KHTML, like Gecko) draw.io/21.2.1 Chrome/112.0.5615.87 Electron/24.1.2 Safari/537.36" etag="rgm45hIfV7zmh-2LG1xJ" version="21.2.1" type="device">
  <diagram name="Page-1" id="2a216829-ef6e-dabb-86c1-c78162f3ba2b">
    <mxGraphModel dx="1111" dy="783" grid="1" gridSize="10" guides="1" tooltips="1" connect="1" arrows="1" fold="1" page="1" pageScale="1" pageWidth="1654" pageHeight="1169" background="none" math="0" shadow="0">
      <root>
        <mxCell id="0" />
        <mxCell id="1" parent="0" />
        <mxCell id="qIGdpLOA18paO1MWexL8-1" value="Формирование и консолидация потребности, для дальнейшего включения в РПЗ, ПЗ, ПЗИП и размещение в ЕИС" style="swimlane;html=1;childLayout=stackLayout;resizeParent=1;resizeParentMax=0;horizontal=1;startSize=20;horizontalStack=0;whiteSpace=wrap;" parent="1" vertex="1">
          <mxGeometry x="34" y="430" width="2960" height="2840" as="geometry" />
        </mxCell>
        <mxCell id="qIGdpLOA18paO1MWexL8-2" value="Структурные подразделения" style="swimlane;html=1;startSize=43;horizontal=0;whiteSpace=wrap;" parent="qIGdpLOA18paO1MWexL8-1" vertex="1">
          <mxGeometry y="20" width="2960" height="990" as="geometry" />
        </mxCell>
        <mxCell id="DeYklIsLx5DjZW_Tn90c-2" style="edgeStyle=orthogonalEdgeStyle;rounded=0;orthogonalLoop=1;jettySize=auto;html=1;" parent="qIGdpLOA18paO1MWexL8-2" source="qIGdpLOA18paO1MWexL8-14" target="DeYklIsLx5DjZW_Tn90c-1" edge="1">
          <mxGeometry relative="1" as="geometry" />
        </mxCell>
        <mxCell id="qIGdpLOA18paO1MWexL8-14" value="Определить относятся ли потребности к ЕЗП" style="points=[[0.25,0,0],[0.5,0,0],[0.75,0,0],[1,0.25,0],[1,0.5,0],[1,0.75,0],[0.75,1,0],[0.5,1,0],[0.25,1,0],[0,0.75,0],[0,0.5,0],[0,0.25,0]];shape=mxgraph.bpmn.task;whiteSpace=wrap;rectStyle=rounded;size=10;html=1;container=1;expand=0;collapsible=0;taskMarker=abstract;" parent="qIGdpLOA18paO1MWexL8-2" vertex="1">
          <mxGeometry x="233" y="405" width="157" height="80" as="geometry" />
        </mxCell>
        <mxCell id="qIGdpLOA18paO1MWexL8-23" value="НЕТ" style="edgeStyle=orthogonalEdgeStyle;rounded=0;orthogonalLoop=1;jettySize=auto;html=1;entryX=0;entryY=0.5;entryDx=0;entryDy=0;entryPerimeter=0;" parent="qIGdpLOA18paO1MWexL8-2" source="qIGdpLOA18paO1MWexL8-16" target="qIGdpLOA18paO1MWexL8-19" edge="1">
          <mxGeometry relative="1" as="geometry">
            <Array as="points">
              <mxPoint x="706" y="330" />
              <mxPoint x="706" y="445" />
            </Array>
          </mxGeometry>
        </mxCell>
        <mxCell id="tKiw61EYx3mgxC2zRoXI-23" value="ДА" style="edgeStyle=orthogonalEdgeStyle;rounded=0;orthogonalLoop=1;jettySize=auto;html=1;entryX=0;entryY=0.5;entryDx=0;entryDy=0;entryPerimeter=0;" parent="qIGdpLOA18paO1MWexL8-2" source="qIGdpLOA18paO1MWexL8-16" target="tKiw61EYx3mgxC2zRoXI-22" edge="1">
          <mxGeometry relative="1" as="geometry">
            <Array as="points">
              <mxPoint x="706" y="330" />
              <mxPoint x="706" y="232" />
            </Array>
          </mxGeometry>
        </mxCell>
        <mxCell id="qIGdpLOA18paO1MWexL8-16" value="способ закупки -&amp;nbsp;&lt;br&gt;единственный &lt;br&gt;поставщик?" style="points=[[0.25,0.25,0],[0.5,0,0],[0.75,0.25,0],[1,0.5,0],[0.75,0.75,0],[0.5,1,0],[0.25,0.75,0],[0,0.5,0]];shape=mxgraph.bpmn.gateway2;html=1;verticalLabelPosition=bottom;labelBackgroundColor=#ffffff;verticalAlign=top;align=center;perimeter=rhombusPerimeter;outlineConnect=0;outline=none;symbol=none;gwType=exclusive;" parent="qIGdpLOA18paO1MWexL8-2" vertex="1">
          <mxGeometry x="611" y="305" width="50" height="50" as="geometry" />
        </mxCell>
        <mxCell id="tKiw61EYx3mgxC2zRoXI-25" value="" style="edgeStyle=orthogonalEdgeStyle;rounded=0;orthogonalLoop=1;jettySize=auto;html=1;dashed=1;dashPattern=8 8;" parent="qIGdpLOA18paO1MWexL8-2" source="qIGdpLOA18paO1MWexL8-18" target="qIGdpLOA18paO1MWexL8-43" edge="1">
          <mxGeometry relative="1" as="geometry" />
        </mxCell>
        <mxCell id="tKiw61EYx3mgxC2zRoXI-57" style="edgeStyle=orthogonalEdgeStyle;rounded=0;orthogonalLoop=1;jettySize=auto;html=1;entryX=0;entryY=0.5;entryDx=0;entryDy=0;entryPerimeter=0;" parent="qIGdpLOA18paO1MWexL8-2" source="qIGdpLOA18paO1MWexL8-18" target="qIGdpLOA18paO1MWexL8-52" edge="1">
          <mxGeometry relative="1" as="geometry" />
        </mxCell>
        <mxCell id="qIGdpLOA18paO1MWexL8-18" value="Утвердить пояснительную записку" style="points=[[0.25,0,0],[0.5,0,0],[0.75,0,0],[1,0.25,0],[1,0.5,0],[1,0.75,0],[0.75,1,0],[0.5,1,0],[0.25,1,0],[0,0.75,0],[0,0.5,0],[0,0.25,0]];shape=mxgraph.bpmn.task;whiteSpace=wrap;rectStyle=rounded;size=10;html=1;container=1;expand=0;collapsible=0;taskMarker=abstract;" parent="qIGdpLOA18paO1MWexL8-2" vertex="1">
          <mxGeometry x="926" y="192.5" width="120" height="80" as="geometry" />
        </mxCell>
        <mxCell id="qIGdpLOA18paO1MWexL8-47" value="" style="edgeStyle=orthogonalEdgeStyle;rounded=0;orthogonalLoop=1;jettySize=auto;html=1;dashed=1;" parent="qIGdpLOA18paO1MWexL8-2" source="qIGdpLOA18paO1MWexL8-19" target="qIGdpLOA18paO1MWexL8-44" edge="1">
          <mxGeometry relative="1" as="geometry" />
        </mxCell>
        <mxCell id="tKiw61EYx3mgxC2zRoXI-59" style="edgeStyle=orthogonalEdgeStyle;rounded=0;orthogonalLoop=1;jettySize=auto;html=1;entryX=0;entryY=0.5;entryDx=0;entryDy=0;entryPerimeter=0;" parent="qIGdpLOA18paO1MWexL8-2" source="qIGdpLOA18paO1MWexL8-19" target="tKiw61EYx3mgxC2zRoXI-58" edge="1">
          <mxGeometry relative="1" as="geometry" />
        </mxCell>
        <mxCell id="qIGdpLOA18paO1MWexL8-19" value="Утвердить Техническое&amp;nbsp;&lt;br&gt;задание" style="points=[[0.25,0,0],[0.5,0,0],[0.75,0,0],[1,0.25,0],[1,0.5,0],[1,0.75,0],[0.75,1,0],[0.5,1,0],[0.25,1,0],[0,0.75,0],[0,0.5,0],[0,0.25,0]];shape=mxgraph.bpmn.task;whiteSpace=wrap;rectStyle=rounded;size=10;html=1;container=1;expand=0;collapsible=0;taskMarker=abstract;" parent="qIGdpLOA18paO1MWexL8-2" vertex="1">
          <mxGeometry x="821" y="405" width="120" height="80" as="geometry" />
        </mxCell>
        <mxCell id="tKiw61EYx3mgxC2zRoXI-15" style="edgeStyle=orthogonalEdgeStyle;rounded=0;orthogonalLoop=1;jettySize=auto;html=1;entryX=0.331;entryY=-0.02;entryDx=0;entryDy=0;entryPerimeter=0;dashed=1;dashPattern=8 8;" parent="qIGdpLOA18paO1MWexL8-2" source="qIGdpLOA18paO1MWexL8-43" target="qIGdpLOA18paO1MWexL8-52" edge="1">
          <mxGeometry relative="1" as="geometry" />
        </mxCell>
        <mxCell id="tKiw61EYx3mgxC2zRoXI-83" style="edgeStyle=orthogonalEdgeStyle;rounded=0;orthogonalLoop=1;jettySize=auto;html=1;entryX=0.998;entryY=0.48;entryDx=0;entryDy=0;entryPerimeter=0;dashed=1;dashPattern=8 8;" parent="qIGdpLOA18paO1MWexL8-2" source="qIGdpLOA18paO1MWexL8-43" target="tKiw61EYx3mgxC2zRoXI-72" edge="1">
          <mxGeometry relative="1" as="geometry">
            <Array as="points">
              <mxPoint x="986" y="50" />
              <mxPoint x="1466" y="50" />
              <mxPoint x="1466" y="434" />
            </Array>
          </mxGeometry>
        </mxCell>
        <mxCell id="tKiw61EYx3mgxC2zRoXI-99" style="edgeStyle=orthogonalEdgeStyle;rounded=0;orthogonalLoop=1;jettySize=auto;html=1;entryX=0.75;entryY=0;entryDx=0;entryDy=0;entryPerimeter=0;dashed=1;dashPattern=8 8;" parent="qIGdpLOA18paO1MWexL8-2" source="qIGdpLOA18paO1MWexL8-43" target="tKiw61EYx3mgxC2zRoXI-94" edge="1">
          <mxGeometry relative="1" as="geometry">
            <Array as="points">
              <mxPoint x="986" y="30" />
              <mxPoint x="2822" y="30" />
            </Array>
          </mxGeometry>
        </mxCell>
        <mxCell id="qIGdpLOA18paO1MWexL8-43" value="Пояснительная&amp;nbsp;&lt;br&gt;записка" style="shape=mxgraph.bpmn.data;labelPosition=center;verticalLabelPosition=bottom;align=center;verticalAlign=top;size=15;html=1;" parent="qIGdpLOA18paO1MWexL8-2" vertex="1">
          <mxGeometry x="966" y="75" width="40" height="60" as="geometry" />
        </mxCell>
        <mxCell id="tKiw61EYx3mgxC2zRoXI-60" style="edgeStyle=orthogonalEdgeStyle;rounded=0;orthogonalLoop=1;jettySize=auto;html=1;entryX=0.5;entryY=1;entryDx=0;entryDy=0;entryPerimeter=0;dashed=1;dashPattern=8 8;" parent="qIGdpLOA18paO1MWexL8-2" source="qIGdpLOA18paO1MWexL8-44" target="tKiw61EYx3mgxC2zRoXI-58" edge="1">
          <mxGeometry relative="1" as="geometry" />
        </mxCell>
        <mxCell id="tKiw61EYx3mgxC2zRoXI-80" style="edgeStyle=orthogonalEdgeStyle;rounded=0;orthogonalLoop=1;jettySize=auto;html=1;entryX=0;entryY=0.5;entryDx=0;entryDy=0;entryPerimeter=0;dashed=1;dashPattern=8 8;" parent="qIGdpLOA18paO1MWexL8-2" source="qIGdpLOA18paO1MWexL8-44" target="tKiw61EYx3mgxC2zRoXI-72" edge="1">
          <mxGeometry relative="1" as="geometry">
            <Array as="points">
              <mxPoint x="1296" y="600" />
              <mxPoint x="1296" y="435" />
            </Array>
          </mxGeometry>
        </mxCell>
        <mxCell id="tKiw61EYx3mgxC2zRoXI-102" style="edgeStyle=orthogonalEdgeStyle;rounded=0;orthogonalLoop=1;jettySize=auto;html=1;entryX=0.25;entryY=1;entryDx=0;entryDy=0;entryPerimeter=0;dashed=1;dashPattern=8 8;" parent="qIGdpLOA18paO1MWexL8-2" source="qIGdpLOA18paO1MWexL8-44" target="tKiw61EYx3mgxC2zRoXI-94" edge="1">
          <mxGeometry relative="1" as="geometry">
            <Array as="points">
              <mxPoint x="2705" y="600" />
            </Array>
          </mxGeometry>
        </mxCell>
        <mxCell id="qIGdpLOA18paO1MWexL8-44" value="Техническое&amp;nbsp;&lt;br&gt;задание для&lt;br&gt;закупки по конкур.&lt;br&gt;пр." style="shape=mxgraph.bpmn.data;labelPosition=center;verticalLabelPosition=bottom;align=center;verticalAlign=top;size=15;html=1;" parent="qIGdpLOA18paO1MWexL8-2" vertex="1">
          <mxGeometry x="861" y="560" width="40" height="60" as="geometry" />
        </mxCell>
        <mxCell id="tKiw61EYx3mgxC2zRoXI-64" style="edgeStyle=orthogonalEdgeStyle;rounded=0;orthogonalLoop=1;jettySize=auto;html=1;" parent="qIGdpLOA18paO1MWexL8-2" source="qIGdpLOA18paO1MWexL8-52" edge="1">
          <mxGeometry relative="1" as="geometry">
            <mxPoint x="1336" y="310" as="targetPoint" />
            <Array as="points">
              <mxPoint x="1276" y="233" />
              <mxPoint x="1276" y="310" />
              <mxPoint x="1336" y="310" />
            </Array>
          </mxGeometry>
        </mxCell>
        <mxCell id="qIGdpLOA18paO1MWexL8-52" value="Сформировать строку в предложение (потребность)" style="points=[[0.25,0,0],[0.5,0,0],[0.75,0,0],[1,0.25,0],[1,0.5,0],[1,0.75,0],[0.75,1,0],[0.5,1,0],[0.25,1,0],[0,0.75,0],[0,0.5,0],[0,0.25,0]];shape=mxgraph.bpmn.task;whiteSpace=wrap;rectStyle=rounded;size=10;html=1;container=1;expand=0;collapsible=0;taskMarker=abstract;" parent="qIGdpLOA18paO1MWexL8-2" vertex="1">
          <mxGeometry x="1106" y="192.5" width="120" height="80" as="geometry" />
        </mxCell>
        <mxCell id="DeYklIsLx5DjZW_Tn90c-5" value="НЕТ" style="edgeStyle=orthogonalEdgeStyle;rounded=0;orthogonalLoop=1;jettySize=auto;html=1;entryX=0.5;entryY=1;entryDx=0;entryDy=0;entryPerimeter=0;" parent="qIGdpLOA18paO1MWexL8-2" source="DeYklIsLx5DjZW_Tn90c-1" edge="1">
          <mxGeometry relative="1" as="geometry">
            <mxPoint x="461" y="370" as="targetPoint" />
          </mxGeometry>
        </mxCell>
        <mxCell id="DeYklIsLx5DjZW_Tn90c-6" value="ДА" style="edgeStyle=orthogonalEdgeStyle;rounded=0;orthogonalLoop=1;jettySize=auto;html=1;entryX=0.5;entryY=0;entryDx=0;entryDy=0;entryPerimeter=0;" parent="qIGdpLOA18paO1MWexL8-2" source="DeYklIsLx5DjZW_Tn90c-1" target="DeYklIsLx5DjZW_Tn90c-3" edge="1">
          <mxGeometry x="-0.2" relative="1" as="geometry">
            <mxPoint as="offset" />
          </mxGeometry>
        </mxCell>
        <mxCell id="DeYklIsLx5DjZW_Tn90c-1" value="" style="points=[[0.25,0.25,0],[0.5,0,0],[0.75,0.25,0],[1,0.5,0],[0.75,0.75,0],[0.5,1,0],[0.25,0.75,0],[0,0.5,0]];shape=mxgraph.bpmn.gateway2;html=1;verticalLabelPosition=bottom;labelBackgroundColor=#ffffff;verticalAlign=top;align=center;perimeter=rhombusPerimeter;outlineConnect=0;outline=none;symbol=none;gwType=exclusive;" parent="qIGdpLOA18paO1MWexL8-2" vertex="1">
          <mxGeometry x="436" y="420" width="50" height="50" as="geometry" />
        </mxCell>
        <mxCell id="DeYklIsLx5DjZW_Tn90c-9" style="edgeStyle=orthogonalEdgeStyle;rounded=0;orthogonalLoop=1;jettySize=auto;html=1;" parent="qIGdpLOA18paO1MWexL8-2" source="DeYklIsLx5DjZW_Tn90c-3" target="DeYklIsLx5DjZW_Tn90c-8" edge="1">
          <mxGeometry relative="1" as="geometry" />
        </mxCell>
        <mxCell id="DeYklIsLx5DjZW_Tn90c-3" value="Сформировать заявки о потребностях" style="points=[[0.25,0,0],[0.5,0,0],[0.75,0,0],[1,0.25,0],[1,0.5,0],[1,0.75,0],[0.75,1,0],[0.5,1,0],[0.25,1,0],[0,0.75,0],[0,0.5,0],[0,0.25,0]];shape=mxgraph.bpmn.task;whiteSpace=wrap;rectStyle=rounded;size=10;html=1;container=1;expand=0;collapsible=0;taskMarker=abstract;" parent="qIGdpLOA18paO1MWexL8-2" vertex="1">
          <mxGeometry x="401" y="520" width="120" height="80" as="geometry" />
        </mxCell>
        <mxCell id="DeYklIsLx5DjZW_Tn90c-8" value="заявки&lt;br&gt;(форма не определена)" style="shape=mxgraph.bpmn.data;labelPosition=center;verticalLabelPosition=bottom;align=center;verticalAlign=top;size=15;html=1;" parent="qIGdpLOA18paO1MWexL8-2" vertex="1">
          <mxGeometry x="441" y="650" width="40" height="60" as="geometry" />
        </mxCell>
        <mxCell id="DeYklIsLx5DjZW_Tn90c-21" style="edgeStyle=orthogonalEdgeStyle;rounded=0;orthogonalLoop=1;jettySize=auto;html=1;entryX=0;entryY=0.5;entryDx=0;entryDy=0;entryPerimeter=0;" parent="qIGdpLOA18paO1MWexL8-2" source="DeYklIsLx5DjZW_Tn90c-19" target="qIGdpLOA18paO1MWexL8-16" edge="1">
          <mxGeometry relative="1" as="geometry" />
        </mxCell>
        <mxCell id="DeYklIsLx5DjZW_Tn90c-19" value="Определить способ закупки" style="points=[[0.25,0,0],[0.5,0,0],[0.75,0,0],[1,0.25,0],[1,0.5,0],[1,0.75,0],[0.75,1,0],[0.5,1,0],[0.25,1,0],[0,0.75,0],[0,0.5,0],[0,0.25,0]];shape=mxgraph.bpmn.task;whiteSpace=wrap;rectStyle=rounded;size=10;html=1;container=1;expand=0;collapsible=0;taskMarker=abstract;" parent="qIGdpLOA18paO1MWexL8-2" vertex="1">
          <mxGeometry x="401" y="290" width="116" height="80" as="geometry" />
        </mxCell>
        <mxCell id="DeYklIsLx5DjZW_Tn90c-24" style="edgeStyle=orthogonalEdgeStyle;rounded=0;orthogonalLoop=1;jettySize=auto;html=1;entryX=0;entryY=0.5;entryDx=0;entryDy=0;entryPerimeter=0;" parent="qIGdpLOA18paO1MWexL8-2" source="DeYklIsLx5DjZW_Tn90c-23" target="qIGdpLOA18paO1MWexL8-14" edge="1">
          <mxGeometry relative="1" as="geometry" />
        </mxCell>
        <mxCell id="DeYklIsLx5DjZW_Tn90c-23" value="Сформировать потребность" style="points=[[0.25,0,0],[0.5,0,0],[0.75,0,0],[1,0.25,0],[1,0.5,0],[1,0.75,0],[0.75,1,0],[0.5,1,0],[0.25,1,0],[0,0.75,0],[0,0.5,0],[0,0.25,0]];shape=mxgraph.bpmn.task;whiteSpace=wrap;rectStyle=rounded;size=10;html=1;container=1;expand=0;collapsible=0;taskMarker=abstract;" parent="qIGdpLOA18paO1MWexL8-2" vertex="1">
          <mxGeometry x="76" y="405" width="116" height="80" as="geometry" />
        </mxCell>
        <mxCell id="DeYklIsLx5DjZW_Tn90c-31" value="" style="edgeStyle=orthogonalEdgeStyle;rounded=0;orthogonalLoop=1;jettySize=auto;html=1;" parent="qIGdpLOA18paO1MWexL8-2" source="DeYklIsLx5DjZW_Tn90c-27" target="DeYklIsLx5DjZW_Tn90c-30" edge="1">
          <mxGeometry relative="1" as="geometry" />
        </mxCell>
        <mxCell id="DeYklIsLx5DjZW_Tn90c-27" value="Согласовать предложение с начальником структурного полразделения" style="points=[[0.25,0,0],[0.5,0,0],[0.75,0,0],[1,0.25,0],[1,0.5,0],[1,0.75,0],[0.75,1,0],[0.5,1,0],[0.25,1,0],[0,0.75,0],[0,0.5,0],[0,0.25,0]];shape=mxgraph.bpmn.task;whiteSpace=wrap;rectStyle=rounded;size=10;html=1;container=1;expand=0;collapsible=0;taskMarker=abstract;" parent="qIGdpLOA18paO1MWexL8-2" vertex="1">
          <mxGeometry x="1536" y="290" width="120" height="80" as="geometry" />
        </mxCell>
        <mxCell id="DeYklIsLx5DjZW_Tn90c-35" value="НЕТ" style="edgeStyle=orthogonalEdgeStyle;rounded=0;orthogonalLoop=1;jettySize=auto;html=1;entryX=0;entryY=0.5;entryDx=0;entryDy=0;entryPerimeter=0;" parent="qIGdpLOA18paO1MWexL8-2" source="DeYklIsLx5DjZW_Tn90c-30" target="DeYklIsLx5DjZW_Tn90c-33" edge="1">
          <mxGeometry x="0.2" relative="1" as="geometry">
            <Array as="points">
              <mxPoint x="1826" y="330" />
              <mxPoint x="1826" y="480" />
            </Array>
            <mxPoint as="offset" />
          </mxGeometry>
        </mxCell>
        <mxCell id="tKiw61EYx3mgxC2zRoXI-13" value="ДА" style="edgeStyle=orthogonalEdgeStyle;rounded=0;orthogonalLoop=1;jettySize=auto;html=1;entryX=0;entryY=0.5;entryDx=0;entryDy=0;entryPerimeter=0;" parent="qIGdpLOA18paO1MWexL8-2" source="DeYklIsLx5DjZW_Tn90c-30" target="tKiw61EYx3mgxC2zRoXI-12" edge="1">
          <mxGeometry relative="1" as="geometry">
            <Array as="points">
              <mxPoint x="1826" y="330" />
              <mxPoint x="1826" y="240" />
            </Array>
          </mxGeometry>
        </mxCell>
        <mxCell id="DeYklIsLx5DjZW_Tn90c-30" value="Имеется утвержденное &lt;br&gt;ПЭО решение о НМЦ &lt;br&gt;договора (контракта) ?" style="points=[[0.25,0.25,0],[0.5,0,0],[0.75,0.25,0],[1,0.5,0],[0.75,0.75,0],[0.5,1,0],[0.25,0.75,0],[0,0.5,0]];shape=mxgraph.bpmn.gateway2;html=1;verticalLabelPosition=bottom;labelBackgroundColor=#ffffff;verticalAlign=top;align=center;perimeter=rhombusPerimeter;outlineConnect=0;outline=none;symbol=none;gwType=exclusive;" parent="qIGdpLOA18paO1MWexL8-2" vertex="1">
          <mxGeometry x="1726" y="305" width="50" height="50" as="geometry" />
        </mxCell>
        <mxCell id="tKiw61EYx3mgxC2zRoXI-4" style="edgeStyle=orthogonalEdgeStyle;rounded=0;orthogonalLoop=1;jettySize=auto;html=1;entryX=0;entryY=0.5;entryDx=0;entryDy=0;entryPerimeter=0;" parent="qIGdpLOA18paO1MWexL8-2" source="DeYklIsLx5DjZW_Tn90c-33" target="tKiw61EYx3mgxC2zRoXI-6" edge="1">
          <mxGeometry relative="1" as="geometry">
            <mxPoint x="2091" y="480" as="targetPoint" />
            <Array as="points">
              <mxPoint x="2056" y="480" />
              <mxPoint x="2056" y="330" />
            </Array>
          </mxGeometry>
        </mxCell>
        <mxCell id="DeYklIsLx5DjZW_Tn90c-33" value="Согласовать предложение с начальником ПЭО" style="points=[[0.25,0,0],[0.5,0,0],[0.75,0,0],[1,0.25,0],[1,0.5,0],[1,0.75,0],[0.75,1,0],[0.5,1,0],[0.25,1,0],[0,0.75,0],[0,0.5,0],[0,0.25,0]];shape=mxgraph.bpmn.task;whiteSpace=wrap;rectStyle=rounded;size=10;html=1;container=1;expand=0;collapsible=0;taskMarker=abstract;" parent="qIGdpLOA18paO1MWexL8-2" vertex="1">
          <mxGeometry x="1876" y="440" width="120" height="80" as="geometry" />
        </mxCell>
        <mxCell id="tKiw61EYx3mgxC2zRoXI-87" value="ДА" style="edgeStyle=orthogonalEdgeStyle;rounded=0;orthogonalLoop=1;jettySize=auto;html=1;entryX=0;entryY=0.5;entryDx=0;entryDy=0;entryPerimeter=0;" parent="qIGdpLOA18paO1MWexL8-2" source="tKiw61EYx3mgxC2zRoXI-6" target="tKiw61EYx3mgxC2zRoXI-7" edge="1">
          <mxGeometry relative="1" as="geometry">
            <Array as="points">
              <mxPoint x="2171" y="230" />
            </Array>
          </mxGeometry>
        </mxCell>
        <mxCell id="tKiw61EYx3mgxC2zRoXI-88" value="НЕТ" style="edgeStyle=orthogonalEdgeStyle;rounded=0;orthogonalLoop=1;jettySize=auto;html=1;entryX=0;entryY=0.5;entryDx=0;entryDy=0;entryPerimeter=0;" parent="qIGdpLOA18paO1MWexL8-2" source="tKiw61EYx3mgxC2zRoXI-6" target="tKiw61EYx3mgxC2zRoXI-8" edge="1">
          <mxGeometry relative="1" as="geometry">
            <Array as="points">
              <mxPoint x="2171" y="435" />
            </Array>
          </mxGeometry>
        </mxCell>
        <mxCell id="tKiw61EYx3mgxC2zRoXI-6" value="Образована ли&lt;br&gt;экспертная&lt;br&gt;комиссия?" style="points=[[0.25,0.25,0],[0.5,0,0],[0.75,0.25,0],[1,0.5,0],[0.75,0.75,0],[0.5,1,0],[0.25,0.75,0],[0,0.5,0]];shape=mxgraph.bpmn.gateway2;html=1;verticalLabelPosition=bottom;labelBackgroundColor=#ffffff;verticalAlign=top;align=center;perimeter=rhombusPerimeter;outlineConnect=0;outline=none;symbol=none;gwType=exclusive;" parent="qIGdpLOA18paO1MWexL8-2" vertex="1">
          <mxGeometry x="2146" y="305" width="50" height="50" as="geometry" />
        </mxCell>
        <mxCell id="tKiw61EYx3mgxC2zRoXI-92" style="edgeStyle=orthogonalEdgeStyle;rounded=0;orthogonalLoop=1;jettySize=auto;html=1;entryX=0.5;entryY=0;entryDx=0;entryDy=0;entryPerimeter=0;" parent="qIGdpLOA18paO1MWexL8-2" source="tKiw61EYx3mgxC2zRoXI-7" target="tKiw61EYx3mgxC2zRoXI-91" edge="1">
          <mxGeometry relative="1" as="geometry" />
        </mxCell>
        <mxCell id="tKiw61EYx3mgxC2zRoXI-97" value="" style="edgeStyle=orthogonalEdgeStyle;rounded=0;orthogonalLoop=1;jettySize=auto;html=1;" parent="qIGdpLOA18paO1MWexL8-2" source="tKiw61EYx3mgxC2zRoXI-7" target="tKiw61EYx3mgxC2zRoXI-96" edge="1">
          <mxGeometry relative="1" as="geometry" />
        </mxCell>
        <mxCell id="tKiw61EYx3mgxC2zRoXI-7" value="Сформировать заключение экспертной коммисии по предложению" style="points=[[0.25,0,0],[0.5,0,0],[0.75,0,0],[1,0.25,0],[1,0.5,0],[1,0.75,0],[0.75,1,0],[0.5,1,0],[0.25,1,0],[0,0.75,0],[0,0.5,0],[0,0.25,0]];shape=mxgraph.bpmn.task;whiteSpace=wrap;rectStyle=rounded;size=10;html=1;container=1;expand=0;collapsible=0;taskMarker=abstract;" parent="qIGdpLOA18paO1MWexL8-2" vertex="1">
          <mxGeometry x="2266" y="190" width="120" height="80" as="geometry" />
        </mxCell>
        <mxCell id="tKiw61EYx3mgxC2zRoXI-93" style="edgeStyle=orthogonalEdgeStyle;rounded=0;orthogonalLoop=1;jettySize=auto;html=1;entryX=0.5;entryY=1;entryDx=0;entryDy=0;entryPerimeter=0;" parent="qIGdpLOA18paO1MWexL8-2" source="tKiw61EYx3mgxC2zRoXI-8" target="tKiw61EYx3mgxC2zRoXI-91" edge="1">
          <mxGeometry relative="1" as="geometry" />
        </mxCell>
        <mxCell id="tKiw61EYx3mgxC2zRoXI-8" value="Согласовать предложение с отделом защиты государственной&lt;br&gt;тайны" style="points=[[0.25,0,0],[0.5,0,0],[0.75,0,0],[1,0.25,0],[1,0.5,0],[1,0.75,0],[0.75,1,0],[0.5,1,0],[0.25,1,0],[0,0.75,0],[0,0.5,0],[0,0.25,0]];shape=mxgraph.bpmn.task;whiteSpace=wrap;rectStyle=rounded;size=10;html=1;container=1;expand=0;collapsible=0;taskMarker=abstract;" parent="qIGdpLOA18paO1MWexL8-2" vertex="1">
          <mxGeometry x="2266" y="395" width="120" height="80" as="geometry" />
        </mxCell>
        <mxCell id="tKiw61EYx3mgxC2zRoXI-14" style="edgeStyle=orthogonalEdgeStyle;rounded=0;orthogonalLoop=1;jettySize=auto;html=1;entryX=0;entryY=0.5;entryDx=0;entryDy=0;entryPerimeter=0;" parent="qIGdpLOA18paO1MWexL8-2" source="tKiw61EYx3mgxC2zRoXI-12" target="tKiw61EYx3mgxC2zRoXI-6" edge="1">
          <mxGeometry relative="1" as="geometry">
            <Array as="points">
              <mxPoint x="2056" y="240" />
              <mxPoint x="2056" y="330" />
            </Array>
          </mxGeometry>
        </mxCell>
        <mxCell id="tKiw61EYx3mgxC2zRoXI-103" style="edgeStyle=orthogonalEdgeStyle;rounded=0;orthogonalLoop=1;jettySize=auto;html=1;entryX=0.5;entryY=0;entryDx=0;entryDy=0;entryPerimeter=0;dashed=1;dashPattern=8 8;" parent="qIGdpLOA18paO1MWexL8-2" source="tKiw61EYx3mgxC2zRoXI-12" target="tKiw61EYx3mgxC2zRoXI-94" edge="1">
          <mxGeometry relative="1" as="geometry">
            <Array as="points">
              <mxPoint x="1936" y="60" />
              <mxPoint x="2763" y="60" />
            </Array>
          </mxGeometry>
        </mxCell>
        <mxCell id="tKiw61EYx3mgxC2zRoXI-12" value="Утверждённое&lt;br&gt;решение о НМЦ&lt;br&gt;договора(контракта)&lt;br&gt;срок действия - 3 месяца" style="shape=mxgraph.bpmn.data;labelPosition=center;verticalLabelPosition=bottom;align=center;verticalAlign=top;size=15;html=1;" parent="qIGdpLOA18paO1MWexL8-2" vertex="1">
          <mxGeometry x="1916" y="210" width="40" height="60" as="geometry" />
        </mxCell>
        <mxCell id="tKiw61EYx3mgxC2zRoXI-24" style="edgeStyle=orthogonalEdgeStyle;rounded=0;orthogonalLoop=1;jettySize=auto;html=1;entryX=0;entryY=0.5;entryDx=0;entryDy=0;entryPerimeter=0;" parent="qIGdpLOA18paO1MWexL8-2" source="tKiw61EYx3mgxC2zRoXI-22" target="qIGdpLOA18paO1MWexL8-18" edge="1">
          <mxGeometry relative="1" as="geometry" />
        </mxCell>
        <mxCell id="tKiw61EYx3mgxC2zRoXI-27" value="" style="edgeStyle=orthogonalEdgeStyle;rounded=0;orthogonalLoop=1;jettySize=auto;html=1;dashed=1;dashPattern=8 8;" parent="qIGdpLOA18paO1MWexL8-2" source="tKiw61EYx3mgxC2zRoXI-22" target="tKiw61EYx3mgxC2zRoXI-26" edge="1">
          <mxGeometry relative="1" as="geometry" />
        </mxCell>
        <mxCell id="tKiw61EYx3mgxC2zRoXI-22" value="Утвердить Техническое&amp;nbsp;&lt;br&gt;задание" style="points=[[0.25,0,0],[0.5,0,0],[0.75,0,0],[1,0.25,0],[1,0.5,0],[1,0.75,0],[0.75,1,0],[0.5,1,0],[0.25,1,0],[0,0.75,0],[0,0.5,0],[0,0.25,0]];shape=mxgraph.bpmn.task;whiteSpace=wrap;rectStyle=rounded;size=10;html=1;container=1;expand=0;collapsible=0;taskMarker=abstract;" parent="qIGdpLOA18paO1MWexL8-2" vertex="1">
          <mxGeometry x="741" y="192.5" width="120" height="80" as="geometry" />
        </mxCell>
        <mxCell id="tKiw61EYx3mgxC2zRoXI-28" style="edgeStyle=orthogonalEdgeStyle;rounded=0;orthogonalLoop=1;jettySize=auto;html=1;entryX=0.5;entryY=0;entryDx=0;entryDy=0;entryPerimeter=0;dashed=1;dashPattern=8 8;" parent="qIGdpLOA18paO1MWexL8-2" source="tKiw61EYx3mgxC2zRoXI-26" target="qIGdpLOA18paO1MWexL8-52" edge="1">
          <mxGeometry relative="1" as="geometry">
            <Array as="points">
              <mxPoint x="801" y="70" />
              <mxPoint x="1166" y="70" />
            </Array>
          </mxGeometry>
        </mxCell>
        <mxCell id="tKiw61EYx3mgxC2zRoXI-81" style="edgeStyle=orthogonalEdgeStyle;rounded=0;orthogonalLoop=1;jettySize=auto;html=1;entryX=0;entryY=0;entryDx=40;entryDy=37.5;entryPerimeter=0;dashed=1;dashPattern=8 8;" parent="qIGdpLOA18paO1MWexL8-2" source="tKiw61EYx3mgxC2zRoXI-26" target="tKiw61EYx3mgxC2zRoXI-72" edge="1">
          <mxGeometry relative="1" as="geometry">
            <Array as="points">
              <mxPoint x="786" y="40" />
              <mxPoint x="1506" y="40" />
              <mxPoint x="1506" y="442" />
            </Array>
          </mxGeometry>
        </mxCell>
        <mxCell id="tKiw61EYx3mgxC2zRoXI-98" style="edgeStyle=orthogonalEdgeStyle;rounded=0;orthogonalLoop=1;jettySize=auto;html=1;entryX=0.902;entryY=0.014;entryDx=0;entryDy=0;entryPerimeter=0;dashed=1;dashPattern=8 8;" parent="qIGdpLOA18paO1MWexL8-2" source="tKiw61EYx3mgxC2zRoXI-26" target="tKiw61EYx3mgxC2zRoXI-94" edge="1">
          <mxGeometry relative="1" as="geometry">
            <Array as="points">
              <mxPoint x="801" y="20" />
              <mxPoint x="2857" y="20" />
            </Array>
          </mxGeometry>
        </mxCell>
        <mxCell id="tKiw61EYx3mgxC2zRoXI-26" value="Техническое&amp;nbsp;&lt;br&gt;задание&lt;br&gt;для закупки у ед.п." style="shape=mxgraph.bpmn.data;labelPosition=center;verticalLabelPosition=bottom;align=center;verticalAlign=top;size=15;html=1;" parent="qIGdpLOA18paO1MWexL8-2" vertex="1">
          <mxGeometry x="781" y="75" width="40" height="60" as="geometry" />
        </mxCell>
        <mxCell id="tKiw61EYx3mgxC2zRoXI-63" style="edgeStyle=orthogonalEdgeStyle;rounded=0;orthogonalLoop=1;jettySize=auto;html=1;entryX=-0.006;entryY=0.749;entryDx=0;entryDy=0;entryPerimeter=0;" parent="qIGdpLOA18paO1MWexL8-2" source="tKiw61EYx3mgxC2zRoXI-58" target="tKiw61EYx3mgxC2zRoXI-61" edge="1">
          <mxGeometry relative="1" as="geometry">
            <Array as="points">
              <mxPoint x="1276" y="445" />
              <mxPoint x="1276" y="350" />
              <mxPoint x="1335" y="350" />
            </Array>
          </mxGeometry>
        </mxCell>
        <mxCell id="tKiw61EYx3mgxC2zRoXI-58" value="Сформировать строку в предложение (потребность)" style="points=[[0.25,0,0],[0.5,0,0],[0.75,0,0],[1,0.25,0],[1,0.5,0],[1,0.75,0],[0.75,1,0],[0.5,1,0],[0.25,1,0],[0,0.75,0],[0,0.5,0],[0,0.25,0]];shape=mxgraph.bpmn.task;whiteSpace=wrap;rectStyle=rounded;size=10;html=1;container=1;expand=0;collapsible=0;taskMarker=abstract;" parent="qIGdpLOA18paO1MWexL8-2" vertex="1">
          <mxGeometry x="1096" y="405" width="120" height="80" as="geometry" />
        </mxCell>
        <mxCell id="tKiw61EYx3mgxC2zRoXI-76" value="" style="edgeStyle=orthogonalEdgeStyle;rounded=0;orthogonalLoop=1;jettySize=auto;html=1;" parent="qIGdpLOA18paO1MWexL8-2" source="tKiw61EYx3mgxC2zRoXI-61" target="tKiw61EYx3mgxC2zRoXI-72" edge="1">
          <mxGeometry relative="1" as="geometry" />
        </mxCell>
        <mxCell id="tKiw61EYx3mgxC2zRoXI-84" style="edgeStyle=orthogonalEdgeStyle;rounded=0;orthogonalLoop=1;jettySize=auto;html=1;entryX=0;entryY=0.5;entryDx=0;entryDy=0;entryPerimeter=0;" parent="qIGdpLOA18paO1MWexL8-2" source="tKiw61EYx3mgxC2zRoXI-61" target="DeYklIsLx5DjZW_Tn90c-27" edge="1">
          <mxGeometry relative="1" as="geometry" />
        </mxCell>
        <mxCell id="tKiw61EYx3mgxC2zRoXI-61" value="Сформировать предложение" style="points=[[0.25,0,0],[0.5,0,0],[0.75,0,0],[1,0.25,0],[1,0.5,0],[1,0.75,0],[0.75,1,0],[0.5,1,0],[0.25,1,0],[0,0.75,0],[0,0.5,0],[0,0.25,0]];shape=mxgraph.bpmn.task;whiteSpace=wrap;rectStyle=rounded;size=10;html=1;container=1;expand=0;collapsible=0;taskMarker=abstract;" parent="qIGdpLOA18paO1MWexL8-2" vertex="1">
          <mxGeometry x="1336" y="290" width="120" height="80" as="geometry" />
        </mxCell>
        <mxCell id="tKiw61EYx3mgxC2zRoXI-72" value="Приложение №3&lt;br&gt;к регмаменту" style="shape=mxgraph.bpmn.data;labelPosition=center;verticalLabelPosition=bottom;align=center;verticalAlign=top;size=15;html=1;" parent="qIGdpLOA18paO1MWexL8-2" vertex="1">
          <mxGeometry x="1376" y="405" width="40" height="60" as="geometry" />
        </mxCell>
        <mxCell id="tKiw61EYx3mgxC2zRoXI-95" style="edgeStyle=orthogonalEdgeStyle;rounded=0;orthogonalLoop=1;jettySize=auto;html=1;entryX=0;entryY=0.5;entryDx=0;entryDy=0;entryPerimeter=0;" parent="qIGdpLOA18paO1MWexL8-2" source="tKiw61EYx3mgxC2zRoXI-91" target="tKiw61EYx3mgxC2zRoXI-94" edge="1">
          <mxGeometry relative="1" as="geometry" />
        </mxCell>
        <mxCell id="tKiw61EYx3mgxC2zRoXI-91" value="Согласованное&lt;br&gt;предложение" style="shape=mxgraph.bpmn.data;labelPosition=center;verticalLabelPosition=bottom;align=center;verticalAlign=top;size=15;html=1;" parent="qIGdpLOA18paO1MWexL8-2" vertex="1">
          <mxGeometry x="2506" y="300" width="40" height="60" as="geometry" />
        </mxCell>
        <mxCell id="tKiw61EYx3mgxC2zRoXI-94" value="Отправить с/з с пакетом документов в договорное управление" style="points=[[0.25,0,0],[0.5,0,0],[0.75,0,0],[1,0.25,0],[1,0.5,0],[1,0.75,0],[0.75,1,0],[0.5,1,0],[0.25,1,0],[0,0.75,0],[0,0.5,0],[0,0.25,0]];shape=mxgraph.bpmn.task;whiteSpace=wrap;rectStyle=rounded;size=10;html=1;container=1;expand=0;collapsible=0;taskMarker=abstract;" parent="qIGdpLOA18paO1MWexL8-2" vertex="1">
          <mxGeometry x="2646" y="290" width="234" height="80" as="geometry" />
        </mxCell>
        <mxCell id="tKiw61EYx3mgxC2zRoXI-100" style="edgeStyle=orthogonalEdgeStyle;rounded=0;orthogonalLoop=1;jettySize=auto;html=1;entryX=0.25;entryY=0;entryDx=0;entryDy=0;entryPerimeter=0;dashed=1;dashPattern=8 8;" parent="qIGdpLOA18paO1MWexL8-2" source="tKiw61EYx3mgxC2zRoXI-96" target="tKiw61EYx3mgxC2zRoXI-94" edge="1">
          <mxGeometry relative="1" as="geometry" />
        </mxCell>
        <mxCell id="tKiw61EYx3mgxC2zRoXI-96" value="Экспертное&lt;br&gt;заключение" style="shape=mxgraph.bpmn.data;labelPosition=center;verticalLabelPosition=bottom;align=center;verticalAlign=top;size=15;html=1;" parent="qIGdpLOA18paO1MWexL8-2" vertex="1">
          <mxGeometry x="2306" y="70" width="40" height="60" as="geometry" />
        </mxCell>
        <mxCell id="qIGdpLOA18paO1MWexL8-3" value="Единое заказывающее подразделение (ЕЗП)" style="swimlane;html=1;startSize=43;horizontal=0;" parent="qIGdpLOA18paO1MWexL8-1" vertex="1">
          <mxGeometry y="1010" width="2960" height="880" as="geometry" />
        </mxCell>
        <mxCell id="tKiw61EYx3mgxC2zRoXI-503" style="edgeStyle=orthogonalEdgeStyle;rounded=0;orthogonalLoop=1;jettySize=auto;html=1;entryX=0;entryY=0.5;entryDx=0;entryDy=0;entryPerimeter=0;" parent="qIGdpLOA18paO1MWexL8-3" source="DeYklIsLx5DjZW_Tn90c-10" target="tKiw61EYx3mgxC2zRoXI-466" edge="1">
          <mxGeometry relative="1" as="geometry" />
        </mxCell>
        <mxCell id="DeYklIsLx5DjZW_Tn90c-10" value="Рассмотреть и консолидировать заявки" style="points=[[0.25,0,0],[0.5,0,0],[0.75,0,0],[1,0.25,0],[1,0.5,0],[1,0.75,0],[0.75,1,0],[0.5,1,0],[0.25,1,0],[0,0.75,0],[0,0.5,0],[0,0.25,0]];shape=mxgraph.bpmn.task;whiteSpace=wrap;rectStyle=rounded;size=10;html=1;container=1;expand=0;collapsible=0;taskMarker=abstract;" parent="qIGdpLOA18paO1MWexL8-3" vertex="1">
          <mxGeometry x="76" y="440" width="120" height="80" as="geometry" />
        </mxCell>
        <mxCell id="tKiw61EYx3mgxC2zRoXI-443" value="способ закупки -&amp;nbsp;&lt;br&gt;единственный &lt;br&gt;поставщик?" style="points=[[0.25,0.25,0],[0.5,0,0],[0.75,0.25,0],[1,0.5,0],[0.75,0.75,0],[0.5,1,0],[0.25,0.75,0],[0,0.5,0]];shape=mxgraph.bpmn.gateway2;html=1;verticalLabelPosition=bottom;labelBackgroundColor=#ffffff;verticalAlign=top;align=center;perimeter=rhombusPerimeter;outlineConnect=0;outline=none;symbol=none;gwType=exclusive;" parent="qIGdpLOA18paO1MWexL8-3" vertex="1">
          <mxGeometry x="477" y="455" width="50" height="50" as="geometry" />
        </mxCell>
        <mxCell id="tKiw61EYx3mgxC2zRoXI-446" value="Утвердить пояснительную записку" style="points=[[0.25,0,0],[0.5,0,0],[0.75,0,0],[1,0.25,0],[1,0.5,0],[1,0.75,0],[0.75,1,0],[0.5,1,0],[0.25,1,0],[0,0.75,0],[0,0.5,0],[0,0.25,0]];shape=mxgraph.bpmn.task;whiteSpace=wrap;rectStyle=rounded;size=10;html=1;container=1;expand=0;collapsible=0;taskMarker=abstract;" parent="qIGdpLOA18paO1MWexL8-3" vertex="1">
          <mxGeometry x="792" y="342.5" width="120" height="80" as="geometry" />
        </mxCell>
        <mxCell id="tKiw61EYx3mgxC2zRoXI-449" value="Утвердить Техническое&amp;nbsp;&lt;br&gt;задание" style="points=[[0.25,0,0],[0.5,0,0],[0.75,0,0],[1,0.25,0],[1,0.5,0],[1,0.75,0],[0.75,1,0],[0.5,1,0],[0.25,1,0],[0,0.75,0],[0,0.5,0],[0,0.25,0]];shape=mxgraph.bpmn.task;whiteSpace=wrap;rectStyle=rounded;size=10;html=1;container=1;expand=0;collapsible=0;taskMarker=abstract;" parent="qIGdpLOA18paO1MWexL8-3" vertex="1">
          <mxGeometry x="687" y="555" width="120" height="80" as="geometry" />
        </mxCell>
        <mxCell id="tKiw61EYx3mgxC2zRoXI-441" value="НЕТ" style="edgeStyle=orthogonalEdgeStyle;rounded=0;orthogonalLoop=1;jettySize=auto;html=1;entryX=0;entryY=0.5;entryDx=0;entryDy=0;entryPerimeter=0;" parent="qIGdpLOA18paO1MWexL8-3" source="tKiw61EYx3mgxC2zRoXI-443" target="tKiw61EYx3mgxC2zRoXI-449" edge="1">
          <mxGeometry relative="1" as="geometry">
            <Array as="points">
              <mxPoint x="572" y="480" />
              <mxPoint x="572" y="595" />
            </Array>
          </mxGeometry>
        </mxCell>
        <mxCell id="tKiw61EYx3mgxC2zRoXI-453" value="Пояснительная&amp;nbsp;&lt;br&gt;записка" style="shape=mxgraph.bpmn.data;labelPosition=center;verticalLabelPosition=bottom;align=center;verticalAlign=top;size=15;html=1;" parent="qIGdpLOA18paO1MWexL8-3" vertex="1">
          <mxGeometry x="832" y="225" width="40" height="60" as="geometry" />
        </mxCell>
        <mxCell id="tKiw61EYx3mgxC2zRoXI-444" value="" style="edgeStyle=orthogonalEdgeStyle;rounded=0;orthogonalLoop=1;jettySize=auto;html=1;dashed=1;dashPattern=8 8;" parent="qIGdpLOA18paO1MWexL8-3" source="tKiw61EYx3mgxC2zRoXI-446" target="tKiw61EYx3mgxC2zRoXI-453" edge="1">
          <mxGeometry relative="1" as="geometry" />
        </mxCell>
        <mxCell id="tKiw61EYx3mgxC2zRoXI-457" value="Техническое&amp;nbsp;&lt;br&gt;задание для&lt;br&gt;закупки по конкур.&lt;br&gt;пр." style="shape=mxgraph.bpmn.data;labelPosition=center;verticalLabelPosition=bottom;align=center;verticalAlign=top;size=15;html=1;" parent="qIGdpLOA18paO1MWexL8-3" vertex="1">
          <mxGeometry x="727" y="710" width="40" height="60" as="geometry" />
        </mxCell>
        <mxCell id="tKiw61EYx3mgxC2zRoXI-447" value="" style="edgeStyle=orthogonalEdgeStyle;rounded=0;orthogonalLoop=1;jettySize=auto;html=1;dashed=1;" parent="qIGdpLOA18paO1MWexL8-3" source="tKiw61EYx3mgxC2zRoXI-449" target="tKiw61EYx3mgxC2zRoXI-457" edge="1">
          <mxGeometry relative="1" as="geometry" />
        </mxCell>
        <mxCell id="tKiw61EYx3mgxC2zRoXI-458" style="edgeStyle=orthogonalEdgeStyle;rounded=0;orthogonalLoop=1;jettySize=auto;html=1;" parent="qIGdpLOA18paO1MWexL8-3" source="tKiw61EYx3mgxC2zRoXI-459" edge="1">
          <mxGeometry relative="1" as="geometry">
            <mxPoint x="1202" y="460" as="targetPoint" />
            <Array as="points">
              <mxPoint x="1142" y="383" />
              <mxPoint x="1142" y="460" />
              <mxPoint x="1202" y="460" />
            </Array>
          </mxGeometry>
        </mxCell>
        <mxCell id="tKiw61EYx3mgxC2zRoXI-459" value="Сформировать строку в предложение (потребность)" style="points=[[0.25,0,0],[0.5,0,0],[0.75,0,0],[1,0.25,0],[1,0.5,0],[1,0.75,0],[0.75,1,0],[0.5,1,0],[0.25,1,0],[0,0.75,0],[0,0.5,0],[0,0.25,0]];shape=mxgraph.bpmn.task;whiteSpace=wrap;rectStyle=rounded;size=10;html=1;container=1;expand=0;collapsible=0;taskMarker=abstract;" parent="qIGdpLOA18paO1MWexL8-3" vertex="1">
          <mxGeometry x="972" y="342.5" width="120" height="80" as="geometry" />
        </mxCell>
        <mxCell id="tKiw61EYx3mgxC2zRoXI-445" style="edgeStyle=orthogonalEdgeStyle;rounded=0;orthogonalLoop=1;jettySize=auto;html=1;entryX=0;entryY=0.5;entryDx=0;entryDy=0;entryPerimeter=0;" parent="qIGdpLOA18paO1MWexL8-3" source="tKiw61EYx3mgxC2zRoXI-446" target="tKiw61EYx3mgxC2zRoXI-459" edge="1">
          <mxGeometry relative="1" as="geometry" />
        </mxCell>
        <mxCell id="tKiw61EYx3mgxC2zRoXI-450" style="edgeStyle=orthogonalEdgeStyle;rounded=0;orthogonalLoop=1;jettySize=auto;html=1;entryX=0.331;entryY=-0.02;entryDx=0;entryDy=0;entryPerimeter=0;dashed=1;dashPattern=8 8;" parent="qIGdpLOA18paO1MWexL8-3" source="tKiw61EYx3mgxC2zRoXI-453" target="tKiw61EYx3mgxC2zRoXI-459" edge="1">
          <mxGeometry relative="1" as="geometry" />
        </mxCell>
        <mxCell id="tKiw61EYx3mgxC2zRoXI-465" style="edgeStyle=orthogonalEdgeStyle;rounded=0;orthogonalLoop=1;jettySize=auto;html=1;entryX=0;entryY=0.5;entryDx=0;entryDy=0;entryPerimeter=0;" parent="qIGdpLOA18paO1MWexL8-3" source="tKiw61EYx3mgxC2zRoXI-466" target="tKiw61EYx3mgxC2zRoXI-443" edge="1">
          <mxGeometry relative="1" as="geometry" />
        </mxCell>
        <mxCell id="tKiw61EYx3mgxC2zRoXI-466" value="Определить способ закупки" style="points=[[0.25,0,0],[0.5,0,0],[0.75,0,0],[1,0.25,0],[1,0.5,0],[1,0.75,0],[0.75,1,0],[0.5,1,0],[0.25,1,0],[0,0.75,0],[0,0.5,0],[0,0.25,0]];shape=mxgraph.bpmn.task;whiteSpace=wrap;rectStyle=rounded;size=10;html=1;container=1;expand=0;collapsible=0;taskMarker=abstract;" parent="qIGdpLOA18paO1MWexL8-3" vertex="1">
          <mxGeometry x="267" y="440" width="116" height="80" as="geometry" />
        </mxCell>
        <mxCell id="tKiw61EYx3mgxC2zRoXI-468" value="Согласовать предложение с начальником структурного полразделения" style="points=[[0.25,0,0],[0.5,0,0],[0.75,0,0],[1,0.25,0],[1,0.5,0],[1,0.75,0],[0.75,1,0],[0.5,1,0],[0.25,1,0],[0,0.75,0],[0,0.5,0],[0,0.25,0]];shape=mxgraph.bpmn.task;whiteSpace=wrap;rectStyle=rounded;size=10;html=1;container=1;expand=0;collapsible=0;taskMarker=abstract;fillColor=#a20025;fontColor=#ffffff;strokeColor=#6F0000;" parent="qIGdpLOA18paO1MWexL8-3" vertex="1">
          <mxGeometry x="1402" y="440" width="120" height="80" as="geometry" />
        </mxCell>
        <mxCell id="tKiw61EYx3mgxC2zRoXI-471" value="Имеется утвержденное &lt;br&gt;ПЭО решение о НМЦ &lt;br&gt;договора (контракта) ?" style="points=[[0.25,0.25,0],[0.5,0,0],[0.75,0.25,0],[1,0.5,0],[0.75,0.75,0],[0.5,1,0],[0.25,0.75,0],[0,0.5,0]];shape=mxgraph.bpmn.gateway2;html=1;verticalLabelPosition=bottom;labelBackgroundColor=#ffffff;verticalAlign=top;align=center;perimeter=rhombusPerimeter;outlineConnect=0;outline=none;symbol=none;gwType=exclusive;" parent="qIGdpLOA18paO1MWexL8-3" vertex="1">
          <mxGeometry x="1592" y="455" width="50" height="50" as="geometry" />
        </mxCell>
        <mxCell id="tKiw61EYx3mgxC2zRoXI-467" value="" style="edgeStyle=orthogonalEdgeStyle;rounded=0;orthogonalLoop=1;jettySize=auto;html=1;" parent="qIGdpLOA18paO1MWexL8-3" source="tKiw61EYx3mgxC2zRoXI-468" target="tKiw61EYx3mgxC2zRoXI-471" edge="1">
          <mxGeometry relative="1" as="geometry" />
        </mxCell>
        <mxCell id="tKiw61EYx3mgxC2zRoXI-473" value="Согласовать предложение с начальником ПЭО" style="points=[[0.25,0,0],[0.5,0,0],[0.75,0,0],[1,0.25,0],[1,0.5,0],[1,0.75,0],[0.75,1,0],[0.5,1,0],[0.25,1,0],[0,0.75,0],[0,0.5,0],[0,0.25,0]];shape=mxgraph.bpmn.task;whiteSpace=wrap;rectStyle=rounded;size=10;html=1;container=1;expand=0;collapsible=0;taskMarker=abstract;" parent="qIGdpLOA18paO1MWexL8-3" vertex="1">
          <mxGeometry x="1742" y="590" width="120" height="80" as="geometry" />
        </mxCell>
        <mxCell id="tKiw61EYx3mgxC2zRoXI-469" value="НЕТ" style="edgeStyle=orthogonalEdgeStyle;rounded=0;orthogonalLoop=1;jettySize=auto;html=1;entryX=0;entryY=0.5;entryDx=0;entryDy=0;entryPerimeter=0;" parent="qIGdpLOA18paO1MWexL8-3" source="tKiw61EYx3mgxC2zRoXI-471" target="tKiw61EYx3mgxC2zRoXI-473" edge="1">
          <mxGeometry x="0.2" relative="1" as="geometry">
            <Array as="points">
              <mxPoint x="1692" y="480" />
              <mxPoint x="1692" y="630" />
            </Array>
            <mxPoint as="offset" />
          </mxGeometry>
        </mxCell>
        <mxCell id="tKiw61EYx3mgxC2zRoXI-476" value="Образована ли&lt;br&gt;экспертная&lt;br&gt;комиссия?" style="points=[[0.25,0.25,0],[0.5,0,0],[0.75,0.25,0],[1,0.5,0],[0.75,0.75,0],[0.5,1,0],[0.25,0.75,0],[0,0.5,0]];shape=mxgraph.bpmn.gateway2;html=1;verticalLabelPosition=bottom;labelBackgroundColor=#ffffff;verticalAlign=top;align=center;perimeter=rhombusPerimeter;outlineConnect=0;outline=none;symbol=none;gwType=exclusive;" parent="qIGdpLOA18paO1MWexL8-3" vertex="1">
          <mxGeometry x="2012" y="455" width="50" height="50" as="geometry" />
        </mxCell>
        <mxCell id="tKiw61EYx3mgxC2zRoXI-472" style="edgeStyle=orthogonalEdgeStyle;rounded=0;orthogonalLoop=1;jettySize=auto;html=1;entryX=0;entryY=0.5;entryDx=0;entryDy=0;entryPerimeter=0;" parent="qIGdpLOA18paO1MWexL8-3" source="tKiw61EYx3mgxC2zRoXI-473" target="tKiw61EYx3mgxC2zRoXI-476" edge="1">
          <mxGeometry relative="1" as="geometry">
            <mxPoint x="1957" y="630" as="targetPoint" />
            <Array as="points">
              <mxPoint x="1922" y="630" />
              <mxPoint x="1922" y="480" />
            </Array>
          </mxGeometry>
        </mxCell>
        <mxCell id="tKiw61EYx3mgxC2zRoXI-479" value="Сформировать заключение экспертной коммисии по предложению" style="points=[[0.25,0,0],[0.5,0,0],[0.75,0,0],[1,0.25,0],[1,0.5,0],[1,0.75,0],[0.75,1,0],[0.5,1,0],[0.25,1,0],[0,0.75,0],[0,0.5,0],[0,0.25,0]];shape=mxgraph.bpmn.task;whiteSpace=wrap;rectStyle=rounded;size=10;html=1;container=1;expand=0;collapsible=0;taskMarker=abstract;" parent="qIGdpLOA18paO1MWexL8-3" vertex="1">
          <mxGeometry x="2132" y="340" width="120" height="80" as="geometry" />
        </mxCell>
        <mxCell id="tKiw61EYx3mgxC2zRoXI-474" value="ДА" style="edgeStyle=orthogonalEdgeStyle;rounded=0;orthogonalLoop=1;jettySize=auto;html=1;entryX=0;entryY=0.5;entryDx=0;entryDy=0;entryPerimeter=0;" parent="qIGdpLOA18paO1MWexL8-3" source="tKiw61EYx3mgxC2zRoXI-476" target="tKiw61EYx3mgxC2zRoXI-479" edge="1">
          <mxGeometry relative="1" as="geometry">
            <Array as="points">
              <mxPoint x="2037" y="380" />
            </Array>
          </mxGeometry>
        </mxCell>
        <mxCell id="tKiw61EYx3mgxC2zRoXI-481" value="Согласовать предложение с отделом защиты государственной&lt;br&gt;тайны" style="points=[[0.25,0,0],[0.5,0,0],[0.75,0,0],[1,0.25,0],[1,0.5,0],[1,0.75,0],[0.75,1,0],[0.5,1,0],[0.25,1,0],[0,0.75,0],[0,0.5,0],[0,0.25,0]];shape=mxgraph.bpmn.task;whiteSpace=wrap;rectStyle=rounded;size=10;html=1;container=1;expand=0;collapsible=0;taskMarker=abstract;" parent="qIGdpLOA18paO1MWexL8-3" vertex="1">
          <mxGeometry x="2132" y="545" width="120" height="80" as="geometry" />
        </mxCell>
        <mxCell id="tKiw61EYx3mgxC2zRoXI-475" value="НЕТ" style="edgeStyle=orthogonalEdgeStyle;rounded=0;orthogonalLoop=1;jettySize=auto;html=1;entryX=0;entryY=0.5;entryDx=0;entryDy=0;entryPerimeter=0;" parent="qIGdpLOA18paO1MWexL8-3" source="tKiw61EYx3mgxC2zRoXI-476" target="tKiw61EYx3mgxC2zRoXI-481" edge="1">
          <mxGeometry relative="1" as="geometry">
            <Array as="points">
              <mxPoint x="2037" y="585" />
            </Array>
          </mxGeometry>
        </mxCell>
        <mxCell id="tKiw61EYx3mgxC2zRoXI-482" style="edgeStyle=orthogonalEdgeStyle;rounded=0;orthogonalLoop=1;jettySize=auto;html=1;entryX=0;entryY=0.5;entryDx=0;entryDy=0;entryPerimeter=0;" parent="qIGdpLOA18paO1MWexL8-3" source="tKiw61EYx3mgxC2zRoXI-484" target="tKiw61EYx3mgxC2zRoXI-476" edge="1">
          <mxGeometry relative="1" as="geometry">
            <Array as="points">
              <mxPoint x="1922" y="390" />
              <mxPoint x="1922" y="480" />
            </Array>
          </mxGeometry>
        </mxCell>
        <mxCell id="tKiw61EYx3mgxC2zRoXI-484" value="Утверждённое&lt;br&gt;решение о НМЦ&lt;br&gt;договора(контракта)&lt;br&gt;срок действия - 3 месяца" style="shape=mxgraph.bpmn.data;labelPosition=center;verticalLabelPosition=bottom;align=center;verticalAlign=top;size=15;html=1;" parent="qIGdpLOA18paO1MWexL8-3" vertex="1">
          <mxGeometry x="1782" y="360" width="40" height="60" as="geometry" />
        </mxCell>
        <mxCell id="tKiw61EYx3mgxC2zRoXI-470" value="ДА" style="edgeStyle=orthogonalEdgeStyle;rounded=0;orthogonalLoop=1;jettySize=auto;html=1;entryX=0;entryY=0.5;entryDx=0;entryDy=0;entryPerimeter=0;" parent="qIGdpLOA18paO1MWexL8-3" source="tKiw61EYx3mgxC2zRoXI-471" target="tKiw61EYx3mgxC2zRoXI-484" edge="1">
          <mxGeometry relative="1" as="geometry">
            <Array as="points">
              <mxPoint x="1692" y="480" />
              <mxPoint x="1692" y="390" />
            </Array>
          </mxGeometry>
        </mxCell>
        <mxCell id="tKiw61EYx3mgxC2zRoXI-485" style="edgeStyle=orthogonalEdgeStyle;rounded=0;orthogonalLoop=1;jettySize=auto;html=1;entryX=0;entryY=0.5;entryDx=0;entryDy=0;entryPerimeter=0;" parent="qIGdpLOA18paO1MWexL8-3" source="tKiw61EYx3mgxC2zRoXI-487" target="tKiw61EYx3mgxC2zRoXI-446" edge="1">
          <mxGeometry relative="1" as="geometry" />
        </mxCell>
        <mxCell id="tKiw61EYx3mgxC2zRoXI-487" value="Утвердить Техническое&amp;nbsp;&lt;br&gt;задание" style="points=[[0.25,0,0],[0.5,0,0],[0.75,0,0],[1,0.25,0],[1,0.5,0],[1,0.75,0],[0.75,1,0],[0.5,1,0],[0.25,1,0],[0,0.75,0],[0,0.5,0],[0,0.25,0]];shape=mxgraph.bpmn.task;whiteSpace=wrap;rectStyle=rounded;size=10;html=1;container=1;expand=0;collapsible=0;taskMarker=abstract;" parent="qIGdpLOA18paO1MWexL8-3" vertex="1">
          <mxGeometry x="607" y="342.5" width="120" height="80" as="geometry" />
        </mxCell>
        <mxCell id="tKiw61EYx3mgxC2zRoXI-442" value="ДА" style="edgeStyle=orthogonalEdgeStyle;rounded=0;orthogonalLoop=1;jettySize=auto;html=1;entryX=0;entryY=0.5;entryDx=0;entryDy=0;entryPerimeter=0;" parent="qIGdpLOA18paO1MWexL8-3" source="tKiw61EYx3mgxC2zRoXI-443" target="tKiw61EYx3mgxC2zRoXI-487" edge="1">
          <mxGeometry relative="1" as="geometry">
            <Array as="points">
              <mxPoint x="572" y="480" />
              <mxPoint x="572" y="382" />
            </Array>
          </mxGeometry>
        </mxCell>
        <mxCell id="tKiw61EYx3mgxC2zRoXI-488" style="edgeStyle=orthogonalEdgeStyle;rounded=0;orthogonalLoop=1;jettySize=auto;html=1;entryX=0.5;entryY=0;entryDx=0;entryDy=0;entryPerimeter=0;dashed=1;dashPattern=8 8;" parent="qIGdpLOA18paO1MWexL8-3" source="tKiw61EYx3mgxC2zRoXI-491" target="tKiw61EYx3mgxC2zRoXI-459" edge="1">
          <mxGeometry relative="1" as="geometry">
            <Array as="points">
              <mxPoint x="667" y="220" />
              <mxPoint x="1032" y="220" />
            </Array>
          </mxGeometry>
        </mxCell>
        <mxCell id="tKiw61EYx3mgxC2zRoXI-491" value="Техническое&amp;nbsp;&lt;br&gt;задание&lt;br&gt;для закупки у ед.п." style="shape=mxgraph.bpmn.data;labelPosition=center;verticalLabelPosition=bottom;align=center;verticalAlign=top;size=15;html=1;" parent="qIGdpLOA18paO1MWexL8-3" vertex="1">
          <mxGeometry x="647" y="225" width="40" height="60" as="geometry" />
        </mxCell>
        <mxCell id="tKiw61EYx3mgxC2zRoXI-486" value="" style="edgeStyle=orthogonalEdgeStyle;rounded=0;orthogonalLoop=1;jettySize=auto;html=1;dashed=1;dashPattern=8 8;" parent="qIGdpLOA18paO1MWexL8-3" source="tKiw61EYx3mgxC2zRoXI-487" target="tKiw61EYx3mgxC2zRoXI-491" edge="1">
          <mxGeometry relative="1" as="geometry" />
        </mxCell>
        <mxCell id="tKiw61EYx3mgxC2zRoXI-493" value="Сформировать строку в предложение (потребность)" style="points=[[0.25,0,0],[0.5,0,0],[0.75,0,0],[1,0.25,0],[1,0.5,0],[1,0.75,0],[0.75,1,0],[0.5,1,0],[0.25,1,0],[0,0.75,0],[0,0.5,0],[0,0.25,0]];shape=mxgraph.bpmn.task;whiteSpace=wrap;rectStyle=rounded;size=10;html=1;container=1;expand=0;collapsible=0;taskMarker=abstract;" parent="qIGdpLOA18paO1MWexL8-3" vertex="1">
          <mxGeometry x="962" y="555" width="120" height="80" as="geometry" />
        </mxCell>
        <mxCell id="tKiw61EYx3mgxC2zRoXI-448" style="edgeStyle=orthogonalEdgeStyle;rounded=0;orthogonalLoop=1;jettySize=auto;html=1;entryX=0;entryY=0.5;entryDx=0;entryDy=0;entryPerimeter=0;" parent="qIGdpLOA18paO1MWexL8-3" source="tKiw61EYx3mgxC2zRoXI-449" target="tKiw61EYx3mgxC2zRoXI-493" edge="1">
          <mxGeometry relative="1" as="geometry" />
        </mxCell>
        <mxCell id="tKiw61EYx3mgxC2zRoXI-454" style="edgeStyle=orthogonalEdgeStyle;rounded=0;orthogonalLoop=1;jettySize=auto;html=1;entryX=0.5;entryY=1;entryDx=0;entryDy=0;entryPerimeter=0;dashed=1;dashPattern=8 8;" parent="qIGdpLOA18paO1MWexL8-3" source="tKiw61EYx3mgxC2zRoXI-457" target="tKiw61EYx3mgxC2zRoXI-493" edge="1">
          <mxGeometry relative="1" as="geometry" />
        </mxCell>
        <mxCell id="tKiw61EYx3mgxC2zRoXI-495" style="edgeStyle=orthogonalEdgeStyle;rounded=0;orthogonalLoop=1;jettySize=auto;html=1;entryX=0;entryY=0.5;entryDx=0;entryDy=0;entryPerimeter=0;" parent="qIGdpLOA18paO1MWexL8-3" source="tKiw61EYx3mgxC2zRoXI-496" target="tKiw61EYx3mgxC2zRoXI-468" edge="1">
          <mxGeometry relative="1" as="geometry" />
        </mxCell>
        <mxCell id="tKiw61EYx3mgxC2zRoXI-496" value="Сформировать предложение" style="points=[[0.25,0,0],[0.5,0,0],[0.75,0,0],[1,0.25,0],[1,0.5,0],[1,0.75,0],[0.75,1,0],[0.5,1,0],[0.25,1,0],[0,0.75,0],[0,0.5,0],[0,0.25,0]];shape=mxgraph.bpmn.task;whiteSpace=wrap;rectStyle=rounded;size=10;html=1;container=1;expand=0;collapsible=0;taskMarker=abstract;" parent="qIGdpLOA18paO1MWexL8-3" vertex="1">
          <mxGeometry x="1202" y="440" width="120" height="80" as="geometry" />
        </mxCell>
        <mxCell id="tKiw61EYx3mgxC2zRoXI-492" style="edgeStyle=orthogonalEdgeStyle;rounded=0;orthogonalLoop=1;jettySize=auto;html=1;entryX=-0.006;entryY=0.749;entryDx=0;entryDy=0;entryPerimeter=0;" parent="qIGdpLOA18paO1MWexL8-3" source="tKiw61EYx3mgxC2zRoXI-493" target="tKiw61EYx3mgxC2zRoXI-496" edge="1">
          <mxGeometry relative="1" as="geometry">
            <Array as="points">
              <mxPoint x="1142" y="595" />
              <mxPoint x="1142" y="500" />
              <mxPoint x="1201" y="500" />
            </Array>
          </mxGeometry>
        </mxCell>
        <mxCell id="tKiw61EYx3mgxC2zRoXI-497" value="Приложение №3&lt;br&gt;к регмаменту" style="shape=mxgraph.bpmn.data;labelPosition=center;verticalLabelPosition=bottom;align=center;verticalAlign=top;size=15;html=1;" parent="qIGdpLOA18paO1MWexL8-3" vertex="1">
          <mxGeometry x="1242" y="555" width="40" height="60" as="geometry" />
        </mxCell>
        <mxCell id="tKiw61EYx3mgxC2zRoXI-451" style="edgeStyle=orthogonalEdgeStyle;rounded=0;orthogonalLoop=1;jettySize=auto;html=1;entryX=0.998;entryY=0.48;entryDx=0;entryDy=0;entryPerimeter=0;dashed=1;dashPattern=8 8;" parent="qIGdpLOA18paO1MWexL8-3" source="tKiw61EYx3mgxC2zRoXI-453" target="tKiw61EYx3mgxC2zRoXI-497" edge="1">
          <mxGeometry relative="1" as="geometry">
            <Array as="points">
              <mxPoint x="852" y="200" />
              <mxPoint x="1332" y="200" />
              <mxPoint x="1332" y="584" />
            </Array>
          </mxGeometry>
        </mxCell>
        <mxCell id="tKiw61EYx3mgxC2zRoXI-455" style="edgeStyle=orthogonalEdgeStyle;rounded=0;orthogonalLoop=1;jettySize=auto;html=1;entryX=0;entryY=0.5;entryDx=0;entryDy=0;entryPerimeter=0;dashed=1;dashPattern=8 8;" parent="qIGdpLOA18paO1MWexL8-3" source="tKiw61EYx3mgxC2zRoXI-457" target="tKiw61EYx3mgxC2zRoXI-497" edge="1">
          <mxGeometry relative="1" as="geometry">
            <Array as="points">
              <mxPoint x="1162" y="750" />
              <mxPoint x="1162" y="585" />
            </Array>
          </mxGeometry>
        </mxCell>
        <mxCell id="tKiw61EYx3mgxC2zRoXI-489" style="edgeStyle=orthogonalEdgeStyle;rounded=0;orthogonalLoop=1;jettySize=auto;html=1;entryX=0;entryY=0;entryDx=40;entryDy=37.5;entryPerimeter=0;dashed=1;dashPattern=8 8;" parent="qIGdpLOA18paO1MWexL8-3" source="tKiw61EYx3mgxC2zRoXI-491" target="tKiw61EYx3mgxC2zRoXI-497" edge="1">
          <mxGeometry relative="1" as="geometry">
            <Array as="points">
              <mxPoint x="652" y="190" />
              <mxPoint x="1372" y="190" />
              <mxPoint x="1372" y="592" />
            </Array>
          </mxGeometry>
        </mxCell>
        <mxCell id="tKiw61EYx3mgxC2zRoXI-494" value="" style="edgeStyle=orthogonalEdgeStyle;rounded=0;orthogonalLoop=1;jettySize=auto;html=1;" parent="qIGdpLOA18paO1MWexL8-3" source="tKiw61EYx3mgxC2zRoXI-496" target="tKiw61EYx3mgxC2zRoXI-497" edge="1">
          <mxGeometry relative="1" as="geometry" />
        </mxCell>
        <mxCell id="tKiw61EYx3mgxC2zRoXI-499" value="Согласованное&lt;br&gt;предложение" style="shape=mxgraph.bpmn.data;labelPosition=center;verticalLabelPosition=bottom;align=center;verticalAlign=top;size=15;html=1;" parent="qIGdpLOA18paO1MWexL8-3" vertex="1">
          <mxGeometry x="2372" y="450" width="40" height="60" as="geometry" />
        </mxCell>
        <mxCell id="tKiw61EYx3mgxC2zRoXI-477" style="edgeStyle=orthogonalEdgeStyle;rounded=0;orthogonalLoop=1;jettySize=auto;html=1;entryX=0.5;entryY=0;entryDx=0;entryDy=0;entryPerimeter=0;" parent="qIGdpLOA18paO1MWexL8-3" source="tKiw61EYx3mgxC2zRoXI-479" target="tKiw61EYx3mgxC2zRoXI-499" edge="1">
          <mxGeometry relative="1" as="geometry" />
        </mxCell>
        <mxCell id="tKiw61EYx3mgxC2zRoXI-480" style="edgeStyle=orthogonalEdgeStyle;rounded=0;orthogonalLoop=1;jettySize=auto;html=1;entryX=0.5;entryY=1;entryDx=0;entryDy=0;entryPerimeter=0;" parent="qIGdpLOA18paO1MWexL8-3" source="tKiw61EYx3mgxC2zRoXI-481" target="tKiw61EYx3mgxC2zRoXI-499" edge="1">
          <mxGeometry relative="1" as="geometry" />
        </mxCell>
        <mxCell id="tKiw61EYx3mgxC2zRoXI-500" value="Отправить с/з с пакетом документов в договорное управление" style="points=[[0.25,0,0],[0.5,0,0],[0.75,0,0],[1,0.25,0],[1,0.5,0],[1,0.75,0],[0.75,1,0],[0.5,1,0],[0.25,1,0],[0,0.75,0],[0,0.5,0],[0,0.25,0]];shape=mxgraph.bpmn.task;whiteSpace=wrap;rectStyle=rounded;size=10;html=1;container=1;expand=0;collapsible=0;taskMarker=abstract;" parent="qIGdpLOA18paO1MWexL8-3" vertex="1">
          <mxGeometry x="2512" y="440" width="234" height="80" as="geometry" />
        </mxCell>
        <mxCell id="tKiw61EYx3mgxC2zRoXI-452" style="edgeStyle=orthogonalEdgeStyle;rounded=0;orthogonalLoop=1;jettySize=auto;html=1;entryX=0.75;entryY=0;entryDx=0;entryDy=0;entryPerimeter=0;dashed=1;dashPattern=8 8;" parent="qIGdpLOA18paO1MWexL8-3" source="tKiw61EYx3mgxC2zRoXI-453" target="tKiw61EYx3mgxC2zRoXI-500" edge="1">
          <mxGeometry relative="1" as="geometry">
            <Array as="points">
              <mxPoint x="852" y="180" />
              <mxPoint x="2688" y="180" />
            </Array>
          </mxGeometry>
        </mxCell>
        <mxCell id="tKiw61EYx3mgxC2zRoXI-456" style="edgeStyle=orthogonalEdgeStyle;rounded=0;orthogonalLoop=1;jettySize=auto;html=1;entryX=0.25;entryY=1;entryDx=0;entryDy=0;entryPerimeter=0;dashed=1;dashPattern=8 8;" parent="qIGdpLOA18paO1MWexL8-3" source="tKiw61EYx3mgxC2zRoXI-457" target="tKiw61EYx3mgxC2zRoXI-500" edge="1">
          <mxGeometry relative="1" as="geometry">
            <Array as="points">
              <mxPoint x="2571" y="750" />
            </Array>
          </mxGeometry>
        </mxCell>
        <mxCell id="tKiw61EYx3mgxC2zRoXI-483" style="edgeStyle=orthogonalEdgeStyle;rounded=0;orthogonalLoop=1;jettySize=auto;html=1;entryX=0.5;entryY=0;entryDx=0;entryDy=0;entryPerimeter=0;dashed=1;dashPattern=8 8;" parent="qIGdpLOA18paO1MWexL8-3" source="tKiw61EYx3mgxC2zRoXI-484" target="tKiw61EYx3mgxC2zRoXI-500" edge="1">
          <mxGeometry relative="1" as="geometry">
            <Array as="points">
              <mxPoint x="1802" y="210" />
              <mxPoint x="2629" y="210" />
            </Array>
          </mxGeometry>
        </mxCell>
        <mxCell id="tKiw61EYx3mgxC2zRoXI-490" style="edgeStyle=orthogonalEdgeStyle;rounded=0;orthogonalLoop=1;jettySize=auto;html=1;entryX=0.902;entryY=0.014;entryDx=0;entryDy=0;entryPerimeter=0;dashed=1;dashPattern=8 8;" parent="qIGdpLOA18paO1MWexL8-3" source="tKiw61EYx3mgxC2zRoXI-491" target="tKiw61EYx3mgxC2zRoXI-500" edge="1">
          <mxGeometry relative="1" as="geometry">
            <Array as="points">
              <mxPoint x="667" y="170" />
              <mxPoint x="2723" y="170" />
            </Array>
          </mxGeometry>
        </mxCell>
        <mxCell id="tKiw61EYx3mgxC2zRoXI-498" style="edgeStyle=orthogonalEdgeStyle;rounded=0;orthogonalLoop=1;jettySize=auto;html=1;entryX=0;entryY=0.5;entryDx=0;entryDy=0;entryPerimeter=0;" parent="qIGdpLOA18paO1MWexL8-3" source="tKiw61EYx3mgxC2zRoXI-499" target="tKiw61EYx3mgxC2zRoXI-500" edge="1">
          <mxGeometry relative="1" as="geometry" />
        </mxCell>
        <mxCell id="tKiw61EYx3mgxC2zRoXI-501" style="edgeStyle=orthogonalEdgeStyle;rounded=0;orthogonalLoop=1;jettySize=auto;html=1;entryX=0.25;entryY=0;entryDx=0;entryDy=0;entryPerimeter=0;dashed=1;dashPattern=8 8;" parent="qIGdpLOA18paO1MWexL8-3" source="tKiw61EYx3mgxC2zRoXI-502" target="tKiw61EYx3mgxC2zRoXI-500" edge="1">
          <mxGeometry relative="1" as="geometry" />
        </mxCell>
        <mxCell id="tKiw61EYx3mgxC2zRoXI-502" value="Экспертное&lt;br&gt;заключение" style="shape=mxgraph.bpmn.data;labelPosition=center;verticalLabelPosition=bottom;align=center;verticalAlign=top;size=15;html=1;" parent="qIGdpLOA18paO1MWexL8-3" vertex="1">
          <mxGeometry x="2172" y="220" width="40" height="60" as="geometry" />
        </mxCell>
        <mxCell id="tKiw61EYx3mgxC2zRoXI-478" value="" style="edgeStyle=orthogonalEdgeStyle;rounded=0;orthogonalLoop=1;jettySize=auto;html=1;" parent="qIGdpLOA18paO1MWexL8-3" source="tKiw61EYx3mgxC2zRoXI-479" target="tKiw61EYx3mgxC2zRoXI-502" edge="1">
          <mxGeometry relative="1" as="geometry" />
        </mxCell>
        <mxCell id="DeYklIsLx5DjZW_Tn90c-11" style="edgeStyle=orthogonalEdgeStyle;rounded=0;orthogonalLoop=1;jettySize=auto;html=1;entryX=0.5;entryY=0;entryDx=0;entryDy=0;entryPerimeter=0;dashed=1;" parent="qIGdpLOA18paO1MWexL8-1" source="DeYklIsLx5DjZW_Tn90c-8" target="DeYklIsLx5DjZW_Tn90c-10" edge="1">
          <mxGeometry relative="1" as="geometry" />
        </mxCell>
        <mxCell id="DeYklIsLx5DjZW_Tn90c-25" style="edgeStyle=orthogonalEdgeStyle;rounded=0;orthogonalLoop=1;jettySize=auto;html=1;entryX=0.25;entryY=1;entryDx=0;entryDy=0;entryPerimeter=0;dashed=1;" parent="qIGdpLOA18paO1MWexL8-1" source="qIGdpLOA18paO1MWexL8-12" target="DeYklIsLx5DjZW_Tn90c-23" edge="1">
          <mxGeometry relative="1" as="geometry">
            <Array as="points">
              <mxPoint x="213" y="2220" />
              <mxPoint x="56" y="2220" />
              <mxPoint x="56" y="530" />
              <mxPoint x="105" y="530" />
            </Array>
          </mxGeometry>
        </mxCell>
        <mxCell id="tKiw61EYx3mgxC2zRoXI-105" style="edgeStyle=orthogonalEdgeStyle;rounded=0;orthogonalLoop=1;jettySize=auto;html=1;entryX=0;entryY=0.5;entryDx=0;entryDy=0;entryPerimeter=0;" parent="qIGdpLOA18paO1MWexL8-1" source="tKiw61EYx3mgxC2zRoXI-94" target="tKiw61EYx3mgxC2zRoXI-104" edge="1">
          <mxGeometry relative="1" as="geometry">
            <Array as="points">
              <mxPoint x="2906" y="350" />
              <mxPoint x="2906" y="1930" />
              <mxPoint x="326" y="1930" />
              <mxPoint x="326" y="2405" />
            </Array>
          </mxGeometry>
        </mxCell>
        <mxCell id="tKiw61EYx3mgxC2zRoXI-504" style="edgeStyle=orthogonalEdgeStyle;rounded=0;orthogonalLoop=1;jettySize=auto;html=1;entryX=0;entryY=0.75;entryDx=0;entryDy=0;entryPerimeter=0;" parent="qIGdpLOA18paO1MWexL8-1" source="tKiw61EYx3mgxC2zRoXI-500" target="tKiw61EYx3mgxC2zRoXI-104" edge="1">
          <mxGeometry relative="1" as="geometry">
            <Array as="points">
              <mxPoint x="2629" y="1910" />
              <mxPoint x="306" y="1910" />
              <mxPoint x="306" y="2425" />
            </Array>
          </mxGeometry>
        </mxCell>
        <mxCell id="qIGdpLOA18paO1MWexL8-4" value="Договорное управление" style="swimlane;html=1;startSize=43;horizontal=0;" parent="qIGdpLOA18paO1MWexL8-1" vertex="1">
          <mxGeometry y="1890" width="2960" height="950" as="geometry" />
        </mxCell>
        <mxCell id="qIGdpLOA18paO1MWexL8-7" value="&lt;font color=&quot;#000000&quot;&gt;Финансовый &lt;br&gt;план&amp;nbsp;&lt;br&gt;утвержден&lt;/font&gt;" style="points=[[0.145,0.145,0],[0.5,0,0],[0.855,0.145,0],[1,0.5,0],[0.855,0.855,0],[0.5,1,0],[0.145,0.855,0],[0,0.5,0]];shape=mxgraph.bpmn.event;html=1;verticalLabelPosition=bottom;labelBackgroundColor=#ffffff;verticalAlign=top;align=center;perimeter=ellipsePerimeter;outlineConnect=0;aspect=fixed;outline=standard;symbol=general;fillColor=#008a00;strokeColor=#005700;fontColor=#ffffff;" parent="qIGdpLOA18paO1MWexL8-4" vertex="1">
          <mxGeometry x="56" y="490" width="50" height="50" as="geometry" />
        </mxCell>
        <mxCell id="qIGdpLOA18paO1MWexL8-10" value="Отправить сл/з на формирование потребности&amp;nbsp;" style="points=[[0.25,0,0],[0.5,0,0],[0.75,0,0],[1,0.25,0],[1,0.5,0],[1,0.75,0],[0.75,1,0],[0.5,1,0],[0.25,1,0],[0,0.75,0],[0,0.5,0],[0,0.25,0]];shape=mxgraph.bpmn.task;whiteSpace=wrap;rectStyle=rounded;size=10;html=1;container=1;expand=0;collapsible=0;taskMarker=abstract;" parent="qIGdpLOA18paO1MWexL8-4" vertex="1">
          <mxGeometry x="153" y="475" width="120" height="80" as="geometry" />
        </mxCell>
        <mxCell id="qIGdpLOA18paO1MWexL8-11" style="edgeStyle=orthogonalEdgeStyle;rounded=0;orthogonalLoop=1;jettySize=auto;html=1;entryX=0;entryY=0.5;entryDx=0;entryDy=0;entryPerimeter=0;" parent="qIGdpLOA18paO1MWexL8-4" source="qIGdpLOA18paO1MWexL8-7" target="qIGdpLOA18paO1MWexL8-10" edge="1">
          <mxGeometry relative="1" as="geometry" />
        </mxCell>
        <mxCell id="qIGdpLOA18paO1MWexL8-12" value="служебная записка" style="shape=mxgraph.bpmn.data;labelPosition=center;verticalLabelPosition=bottom;align=center;verticalAlign=top;size=15;html=1;" parent="qIGdpLOA18paO1MWexL8-4" vertex="1">
          <mxGeometry x="193" y="360" width="40" height="60" as="geometry" />
        </mxCell>
        <mxCell id="qIGdpLOA18paO1MWexL8-13" style="edgeStyle=orthogonalEdgeStyle;rounded=0;orthogonalLoop=1;jettySize=auto;html=1;entryX=0.5;entryY=1;entryDx=0;entryDy=0;entryPerimeter=0;dashed=1;" parent="qIGdpLOA18paO1MWexL8-4" source="qIGdpLOA18paO1MWexL8-10" target="qIGdpLOA18paO1MWexL8-12" edge="1">
          <mxGeometry relative="1" as="geometry" />
        </mxCell>
        <mxCell id="tKiw61EYx3mgxC2zRoXI-510" style="edgeStyle=orthogonalEdgeStyle;rounded=0;orthogonalLoop=1;jettySize=auto;html=1;dashed=1;dashPattern=8 8;" parent="qIGdpLOA18paO1MWexL8-4" source="tKiw61EYx3mgxC2zRoXI-104" target="tKiw61EYx3mgxC2zRoXI-507" edge="1">
          <mxGeometry relative="1" as="geometry">
            <Array as="points">
              <mxPoint x="386" y="590" />
              <mxPoint x="386" y="590" />
            </Array>
          </mxGeometry>
        </mxCell>
        <mxCell id="tKiw61EYx3mgxC2zRoXI-511" style="edgeStyle=orthogonalEdgeStyle;rounded=0;orthogonalLoop=1;jettySize=auto;html=1;entryX=0.5;entryY=0;entryDx=0;entryDy=0;entryPerimeter=0;dashed=1;dashPattern=8 8;" parent="qIGdpLOA18paO1MWexL8-4" source="tKiw61EYx3mgxC2zRoXI-104" target="tKiw61EYx3mgxC2zRoXI-508" edge="1">
          <mxGeometry relative="1" as="geometry" />
        </mxCell>
        <mxCell id="tKiw61EYx3mgxC2zRoXI-512" style="edgeStyle=orthogonalEdgeStyle;rounded=0;orthogonalLoop=1;jettySize=auto;html=1;entryX=0.5;entryY=0;entryDx=0;entryDy=0;entryPerimeter=0;dashed=1;dashPattern=8 8;" parent="qIGdpLOA18paO1MWexL8-4" source="tKiw61EYx3mgxC2zRoXI-104" target="tKiw61EYx3mgxC2zRoXI-509" edge="1">
          <mxGeometry relative="1" as="geometry">
            <Array as="points">
              <mxPoint x="606" y="560" />
              <mxPoint x="606" y="560" />
            </Array>
          </mxGeometry>
        </mxCell>
        <mxCell id="tKiw61EYx3mgxC2zRoXI-513" style="edgeStyle=orthogonalEdgeStyle;rounded=0;orthogonalLoop=1;jettySize=auto;html=1;entryX=0;entryY=0.5;entryDx=0;entryDy=0;entryPerimeter=0;" parent="qIGdpLOA18paO1MWexL8-4" source="tKiw61EYx3mgxC2zRoXI-104" target="tKiw61EYx3mgxC2zRoXI-506" edge="1">
          <mxGeometry relative="1" as="geometry" />
        </mxCell>
        <mxCell id="tKiw61EYx3mgxC2zRoXI-104" value="Сформировать проект РПЗ, ПЗ,ПЗИП" style="points=[[0.25,0,0],[0.5,0,0],[0.75,0,0],[1,0.25,0],[1,0.5,0],[1,0.75,0],[0.75,1,0],[0.5,1,0],[0.25,1,0],[0,0.75,0],[0,0.5,0],[0,0.25,0]];shape=mxgraph.bpmn.task;whiteSpace=wrap;rectStyle=rounded;size=10;html=1;container=1;expand=0;collapsible=0;taskMarker=abstract;" parent="qIGdpLOA18paO1MWexL8-4" vertex="1">
          <mxGeometry x="346" y="475" width="304" height="80" as="geometry" />
        </mxCell>
        <mxCell id="tKiw61EYx3mgxC2zRoXI-515" style="edgeStyle=orthogonalEdgeStyle;rounded=0;orthogonalLoop=1;jettySize=auto;html=1;" parent="qIGdpLOA18paO1MWexL8-4" source="tKiw61EYx3mgxC2zRoXI-506" target="tKiw61EYx3mgxC2zRoXI-514" edge="1">
          <mxGeometry relative="1" as="geometry" />
        </mxCell>
        <mxCell id="tKiw61EYx3mgxC2zRoXI-506" value="Завизировать руководителем договорного управления" style="points=[[0.25,0,0],[0.5,0,0],[0.75,0,0],[1,0.25,0],[1,0.5,0],[1,0.75,0],[0.75,1,0],[0.5,1,0],[0.25,1,0],[0,0.75,0],[0,0.5,0],[0,0.25,0]];shape=mxgraph.bpmn.task;whiteSpace=wrap;rectStyle=rounded;size=10;html=1;container=1;expand=0;collapsible=0;taskMarker=abstract;" parent="qIGdpLOA18paO1MWexL8-4" vertex="1">
          <mxGeometry x="733" y="475" width="120" height="80" as="geometry" />
        </mxCell>
        <mxCell id="tKiw61EYx3mgxC2zRoXI-507" value="РПЗ" style="shape=mxgraph.bpmn.data;labelPosition=center;verticalLabelPosition=bottom;align=center;verticalAlign=top;size=15;html=1;" parent="qIGdpLOA18paO1MWexL8-4" vertex="1">
          <mxGeometry x="372" y="603" width="40" height="60" as="geometry" />
        </mxCell>
        <mxCell id="tKiw61EYx3mgxC2zRoXI-524" style="edgeStyle=orthogonalEdgeStyle;rounded=0;orthogonalLoop=1;jettySize=auto;html=1;entryX=0.871;entryY=1.056;entryDx=0;entryDy=0;entryPerimeter=0;dashed=1;dashPattern=8 8;" parent="qIGdpLOA18paO1MWexL8-4" source="tKiw61EYx3mgxC2zRoXI-508" target="tKiw61EYx3mgxC2zRoXI-520" edge="1">
          <mxGeometry relative="1" as="geometry">
            <Array as="points">
              <mxPoint x="498" y="690" />
              <mxPoint x="1691" y="690" />
            </Array>
          </mxGeometry>
        </mxCell>
        <mxCell id="tKiw61EYx3mgxC2zRoXI-508" value="ПЗ" style="shape=mxgraph.bpmn.data;labelPosition=center;verticalLabelPosition=bottom;align=center;verticalAlign=top;size=15;html=1;" parent="qIGdpLOA18paO1MWexL8-4" vertex="1">
          <mxGeometry x="478" y="600" width="40" height="60" as="geometry" />
        </mxCell>
        <mxCell id="tKiw61EYx3mgxC2zRoXI-525" style="edgeStyle=orthogonalEdgeStyle;rounded=0;orthogonalLoop=1;jettySize=auto;html=1;entryX=0.25;entryY=1;entryDx=0;entryDy=0;entryPerimeter=0;dashed=1;dashPattern=8 8;" parent="qIGdpLOA18paO1MWexL8-4" source="tKiw61EYx3mgxC2zRoXI-509" target="tKiw61EYx3mgxC2zRoXI-520" edge="1">
          <mxGeometry relative="1" as="geometry" />
        </mxCell>
        <mxCell id="tKiw61EYx3mgxC2zRoXI-509" value="ПЗИП" style="shape=mxgraph.bpmn.data;labelPosition=center;verticalLabelPosition=bottom;align=center;verticalAlign=top;size=15;html=1;" parent="qIGdpLOA18paO1MWexL8-4" vertex="1">
          <mxGeometry x="586" y="600" width="40" height="60" as="geometry" />
        </mxCell>
        <mxCell id="tKiw61EYx3mgxC2zRoXI-517" style="edgeStyle=orthogonalEdgeStyle;rounded=0;orthogonalLoop=1;jettySize=auto;html=1;entryX=0;entryY=0.5;entryDx=0;entryDy=0;entryPerimeter=0;" parent="qIGdpLOA18paO1MWexL8-4" source="tKiw61EYx3mgxC2zRoXI-514" target="tKiw61EYx3mgxC2zRoXI-516" edge="1">
          <mxGeometry relative="1" as="geometry" />
        </mxCell>
        <mxCell id="tKiw61EYx3mgxC2zRoXI-514" value="Подготовить проект распоряжение об утверждение" style="points=[[0.25,0,0],[0.5,0,0],[0.75,0,0],[1,0.25,0],[1,0.5,0],[1,0.75,0],[0.75,1,0],[0.5,1,0],[0.25,1,0],[0,0.75,0],[0,0.5,0],[0,0.25,0]];shape=mxgraph.bpmn.task;whiteSpace=wrap;rectStyle=rounded;size=10;html=1;container=1;expand=0;collapsible=0;taskMarker=abstract;" parent="qIGdpLOA18paO1MWexL8-4" vertex="1">
          <mxGeometry x="941" y="475" width="120" height="80" as="geometry" />
        </mxCell>
        <mxCell id="tKiw61EYx3mgxC2zRoXI-519" style="edgeStyle=orthogonalEdgeStyle;rounded=0;orthogonalLoop=1;jettySize=auto;html=1;entryX=0;entryY=0.5;entryDx=0;entryDy=0;entryPerimeter=0;" parent="qIGdpLOA18paO1MWexL8-4" source="tKiw61EYx3mgxC2zRoXI-516" target="tKiw61EYx3mgxC2zRoXI-518" edge="1">
          <mxGeometry relative="1" as="geometry" />
        </mxCell>
        <mxCell id="tKiw61EYx3mgxC2zRoXI-516" value="Утверждить заместителем генерального директора по контрактно-договорной работе" style="points=[[0.25,0,0],[0.5,0,0],[0.75,0,0],[1,0.25,0],[1,0.5,0],[1,0.75,0],[0.75,1,0],[0.5,1,0],[0.25,1,0],[0,0.75,0],[0,0.5,0],[0,0.25,0]];shape=mxgraph.bpmn.task;whiteSpace=wrap;rectStyle=rounded;size=10;html=1;container=1;expand=0;collapsible=0;taskMarker=abstract;" parent="qIGdpLOA18paO1MWexL8-4" vertex="1">
          <mxGeometry x="1146" y="472" width="144" height="85" as="geometry" />
        </mxCell>
        <mxCell id="tKiw61EYx3mgxC2zRoXI-521" style="edgeStyle=orthogonalEdgeStyle;rounded=0;orthogonalLoop=1;jettySize=auto;html=1;entryX=0;entryY=0.5;entryDx=0;entryDy=0;entryPerimeter=0;" parent="qIGdpLOA18paO1MWexL8-4" source="tKiw61EYx3mgxC2zRoXI-518" target="tKiw61EYx3mgxC2zRoXI-520" edge="1">
          <mxGeometry relative="1" as="geometry" />
        </mxCell>
        <mxCell id="tKiw61EYx3mgxC2zRoXI-518" value="Согласовать РПЗ в ГК Роскосмос через АСУЗД" style="points=[[0.25,0,0],[0.5,0,0],[0.75,0,0],[1,0.25,0],[1,0.5,0],[1,0.75,0],[0.75,1,0],[0.5,1,0],[0.25,1,0],[0,0.75,0],[0,0.5,0],[0,0.25,0]];shape=mxgraph.bpmn.task;whiteSpace=wrap;rectStyle=rounded;size=10;html=1;container=1;expand=0;collapsible=0;taskMarker=abstract;" parent="qIGdpLOA18paO1MWexL8-4" vertex="1">
          <mxGeometry x="1376" y="475" width="120" height="80" as="geometry" />
        </mxCell>
        <mxCell id="tKiw61EYx3mgxC2zRoXI-563" style="edgeStyle=orthogonalEdgeStyle;rounded=0;orthogonalLoop=1;jettySize=auto;html=1;entryX=0;entryY=0.5;entryDx=0;entryDy=0;entryPerimeter=0;" parent="qIGdpLOA18paO1MWexL8-4" source="tKiw61EYx3mgxC2zRoXI-520" target="tKiw61EYx3mgxC2zRoXI-560" edge="1">
          <mxGeometry relative="1" as="geometry" />
        </mxCell>
        <mxCell id="tKiw61EYx3mgxC2zRoXI-520" value="Получить заключение от АО Федеральная корпорация по развитию МСП" style="points=[[0.25,0,0],[0.5,0,0],[0.75,0,0],[1,0.25,0],[1,0.5,0],[1,0.75,0],[0.75,1,0],[0.5,1,0],[0.25,1,0],[0,0.75,0],[0,0.5,0],[0,0.25,0]];shape=mxgraph.bpmn.task;whiteSpace=wrap;rectStyle=rounded;size=10;html=1;container=1;expand=0;collapsible=0;taskMarker=abstract;" parent="qIGdpLOA18paO1MWexL8-4" vertex="1">
          <mxGeometry x="1586" y="475" width="120" height="80" as="geometry" />
        </mxCell>
        <mxCell id="tKiw61EYx3mgxC2zRoXI-560" value="Разместить ПЗ и ПЗИП в ЕИС" style="points=[[0.25,0,0],[0.5,0,0],[0.75,0,0],[1,0.25,0],[1,0.5,0],[1,0.75,0],[0.75,1,0],[0.5,1,0],[0.25,1,0],[0,0.75,0],[0,0.5,0],[0,0.25,0]];shape=mxgraph.bpmn.task;whiteSpace=wrap;rectStyle=rounded;size=10;html=1;container=1;expand=0;collapsible=0;taskMarker=abstract;" parent="qIGdpLOA18paO1MWexL8-4" vertex="1">
          <mxGeometry x="1796" y="475" width="120" height="80" as="geometry" />
        </mxCell>
        <mxCell id="tKiw61EYx3mgxC2zRoXI-561" value="" style="ellipse;whiteSpace=wrap;html=1;fillColor=#a20025;fontColor=#ffffff;strokeColor=#6F0000;" parent="qIGdpLOA18paO1MWexL8-4" vertex="1">
          <mxGeometry x="2016" y="480" width="64" height="71" as="geometry" />
        </mxCell>
        <mxCell id="tKiw61EYx3mgxC2zRoXI-559" value="" style="edgeStyle=orthogonalEdgeStyle;rounded=0;orthogonalLoop=1;jettySize=auto;html=1;" parent="qIGdpLOA18paO1MWexL8-4" source="tKiw61EYx3mgxC2zRoXI-560" target="tKiw61EYx3mgxC2zRoXI-561" edge="1">
          <mxGeometry relative="1" as="geometry" />
        </mxCell>
        <mxCell id="tKiw61EYx3mgxC2zRoXI-562" value="ПЗ сформированы" style="text;html=1;align=center;verticalAlign=middle;resizable=0;points=[];autosize=1;strokeColor=none;fillColor=none;" parent="qIGdpLOA18paO1MWexL8-4" vertex="1">
          <mxGeometry x="1983" y="552" width="130" height="30" as="geometry" />
        </mxCell>
      </root>
    </mxGraphModel>
  </diagram>
</mxfile>
